<svg width="302" height="159" viewBox="0 0 302 159" fill="none" xmlns="http://www.w3.org/2000/svg">
<path d="M19 37.1139H43.483V66.8429H49.7801V50.0112H80.9106V76.6626H85.0297V14.1176H112.084V31.2903H125.951V52.6436H130.151V39.2161H154.743V79.2998H161.94V46.7111H184.434V21.963H199.727V7.86786H217.421V70.3844H223.367V44.2964H252.509V81.6387H256.543V51.1569H286.097V23.6959H301.177V129.194H19V37.1139Z" fill="#EBEBEB"/>
<path d="M26.1444 40.8544H22.0016V46.536H26.1444V40.8544Z" fill="white"/>
<path d="M33.3269 40.8544H29.184V46.536H33.3269V40.8544Z" fill="white"/>
<path d="M40.5051 40.8544H36.3623V46.536H40.5051V40.8544Z" fill="white"/>
<path d="M26.1444 49.4053H22.0016V55.0869H26.1444V49.4053Z" fill="white"/>
<path d="M33.3269 49.4053H29.184V55.0869H33.3269V49.4053Z" fill="white"/>
<path d="M40.5051 49.4053H36.3623V55.0869H40.5051V49.4053Z" fill="white"/>
<path d="M26.1444 57.9561H22.0016V63.6377H26.1444V57.9561Z" fill="white"/>
<path d="M33.3269 57.9561H29.184V63.6377H33.3269V57.9561Z" fill="white"/>
<path d="M40.5051 57.9561H36.3623V63.6377H40.5051V57.9561Z" fill="white"/>
<path d="M26.1444 66.5069H22.0016V72.1885H26.1444V66.5069Z" fill="white"/>
<path d="M33.3269 66.5069H29.184V72.1885H33.3269V66.5069Z" fill="white"/>
<path d="M40.5051 66.5069H36.3623V72.1885H40.5051V66.5069Z" fill="white"/>
<path d="M169.539 50.7736H165.396V55.513H169.539V50.7736Z" fill="white"/>
<path d="M176.716 50.7736H172.574V55.513H176.716V50.7736Z" fill="white"/>
<path d="M183.894 50.7736H179.751V55.513H183.894V50.7736Z" fill="white"/>
<path d="M169.539 57.9087H165.396V62.6481H169.539V57.9087Z" fill="white"/>
<path d="M176.716 57.9087H172.574V62.6481H176.716V57.9087Z" fill="white"/>
<path d="M183.894 57.9087H179.751V62.6481H183.894V57.9087Z" fill="white"/>
<path d="M169.539 65.0439H165.396V69.7833H169.539V65.0439Z" fill="white"/>
<path d="M176.716 65.0439H172.574V69.7833H176.716V65.0439Z" fill="white"/>
<path d="M183.894 65.0439H179.751V69.7833H183.894V65.0439Z" fill="white"/>
<path d="M169.539 72.1743H165.396V76.9137H169.539V72.1743Z" fill="white"/>
<path d="M176.716 72.1743H172.574V76.9137H176.716V72.1743Z" fill="white"/>
<path d="M183.894 72.1743H179.751V76.9137H183.894V72.1743Z" fill="white"/>
<path d="M169.539 79.4894H165.396V84.2288H169.539V79.4894Z" fill="white"/>
<path d="M176.716 79.4894H172.574V84.2288H176.716V79.4894Z" fill="white"/>
<path d="M183.894 79.4894H179.751V84.2288H183.894V79.4894Z" fill="white"/>
<path d="M169.539 86.7997H165.396V91.5391H169.539V86.7997Z" fill="white"/>
<path d="M176.716 86.7997H172.574V91.5391H176.716V86.7997Z" fill="white"/>
<path d="M183.894 86.7997H179.751V91.5391H183.894V86.7997Z" fill="white"/>
<path d="M169.539 94.11H165.396V98.8495H169.539V94.11Z" fill="white"/>
<path d="M176.716 94.11H172.574V98.8495H176.716V94.11Z" fill="white"/>
<path d="M183.894 94.11H179.751V98.8495H183.894V94.11Z" fill="white"/>
<path d="M169.539 101.42H165.396V106.16H169.539V101.42Z" fill="white"/>
<path d="M176.716 101.42H172.574V106.16H176.716V101.42Z" fill="white"/>
<path d="M183.894 101.42H179.751V106.16H183.894V101.42Z" fill="white"/>
<path d="M77.1606 53.657H53.3168V57.2127H77.1606V53.657Z" fill="white"/>
<path d="M77.1606 60.5554H53.3168V64.1111H77.1606V60.5554Z" fill="white"/>
<path d="M77.1606 67.4538H53.3168V71.0095H77.1606V67.4538Z" fill="white"/>
<path d="M77.1606 74.3475H53.3168V77.9032H77.1606V74.3475Z" fill="white"/>
<path d="M77.1606 81.2459H53.3168V84.8016H77.1606V81.2459Z" fill="white"/>
<path d="M77.1606 88.1443H53.3168V91.7001H77.1606V88.1443Z" fill="white"/>
<path d="M77.1606 95.0427H53.3168V98.5985H77.1606V95.0427Z" fill="white"/>
<path d="M77.1606 101.936H53.3168V105.492H77.1606V101.936Z" fill="white"/>
<path d="M248.812 47.6108H226.89V51.1666H248.812V47.6108Z" fill="white"/>
<path d="M248.812 54.5092H226.89V58.065H248.812V54.5092Z" fill="white"/>
<path d="M248.812 61.4029H226.89V64.9586H248.812V61.4029Z" fill="white"/>
<path d="M248.812 68.3013H226.89V71.857H248.812V68.3013Z" fill="white"/>
<path d="M248.812 75.1997H226.89V78.7555H248.812V75.1997Z" fill="white"/>
<path d="M248.812 82.0934H226.89V85.6492H248.812V82.0934Z" fill="white"/>
<path d="M248.812 88.9918H226.89V92.5475H248.812V88.9918Z" fill="white"/>
<path d="M248.812 95.8903H226.89V99.446H248.812V95.8903Z" fill="white"/>
<path d="M248.812 102.443H226.89V105.999H248.812V102.443Z" fill="white"/>
<path d="M248.812 108.996H226.89V112.552H248.812V108.996Z" fill="white"/>
<path d="M248.812 115.549H226.89V119.104H248.812V115.549Z" fill="white"/>
<path d="M248.812 122.106H226.89V125.662H248.812V122.106Z" fill="white"/>
<path d="M284.26 55.9391H261.103V59.4948H284.26V55.9391Z" fill="white"/>
<path d="M284.26 62.8375H261.103V66.3932H284.26V62.8375Z" fill="white"/>
<path d="M284.26 69.7359H261.103V73.2917H284.26V69.7359Z" fill="white"/>
<path d="M284.26 76.6343H261.103V80.1901H284.26V76.6343Z" fill="white"/>
<path d="M284.26 83.528H261.103V87.0838H284.26V83.528Z" fill="white"/>
<path d="M284.26 90.4264H261.103V93.9822H284.26V90.4264Z" fill="white"/>
<path d="M284.26 97.3249H261.103V100.881H284.26V97.3249Z" fill="white"/>
<path d="M284.26 104.219H261.103V107.774H284.26V104.219Z" fill="white"/>
<path d="M284.26 110.393H261.103V113.948H284.26V110.393Z" fill="white"/>
<path d="M284.26 116.567H261.103V120.122H284.26V116.567Z" fill="white"/>
<path d="M284.26 122.741H261.103V126.296H284.26V122.741Z" fill="white"/>
<path d="M144.712 42.4311H137.35V45.8637H144.712V42.4311Z" fill="white"/>
<path d="M144.71 49.0927H137.348V52.5254H144.71V49.0927Z" fill="white"/>
<path d="M144.71 55.7544H137.348V59.1871H144.71V55.7544Z" fill="white"/>
<path d="M144.71 62.4161H137.348V65.8487H144.71V62.4161Z" fill="white"/>
<path d="M144.71 69.0731H137.348V72.5057H144.71V69.0731Z" fill="white"/>
<path d="M144.71 75.7347H137.348V79.1674H144.71V75.7347Z" fill="white"/>
<path d="M144.71 82.3964H137.348V85.8291H144.71V82.3964Z" fill="white"/>
<path d="M144.71 89.0581H137.348V92.4907H144.71V89.0581Z" fill="white"/>
<path d="M154.729 42.4311H147.367V45.8637H154.729V42.4311Z" fill="white"/>
<path d="M154.729 49.0927H147.367V52.5254H154.729V49.0927Z" fill="white"/>
<path d="M154.729 55.7544H147.367V59.1871H154.729V55.7544Z" fill="white"/>
<path d="M154.729 62.4161H147.367V65.8487H154.729V62.4161Z" fill="white"/>
<path d="M154.729 69.0731H147.367V72.5057H154.729V69.0731Z" fill="white"/>
<path d="M154.729 75.7347H147.367V79.1674H154.729V75.7347Z" fill="white"/>
<path d="M154.729 82.3964H147.367V85.8291H154.729V82.3964Z" fill="white"/>
<path d="M154.729 89.0581H147.367V92.4907H154.729V89.0581Z" fill="white"/>
<path d="M96.8002 17.7209H89.13V23.1326H96.8002V17.7209Z" fill="white"/>
<path d="M108.239 17.7208H100.569V23.1325H108.239V17.7208Z" fill="white"/>
<path d="M96.8001 25.675H89.1299V31.0868H96.8001V25.675Z" fill="white"/>
<path d="M108.239 25.675H100.569V31.0868H108.239V25.675Z" fill="white"/>
<path d="M96.8001 33.6246H89.1299V39.0363H96.8001V33.6246Z" fill="white"/>
<path d="M108.239 33.6246H100.569V39.0363H108.239V33.6246Z" fill="white"/>
<path d="M96.8001 41.5788H89.1299V46.9906H96.8001V41.5788Z" fill="white"/>
<path d="M108.239 41.5788H100.569V46.9906H108.239V41.5788Z" fill="white"/>
<path d="M96.8001 49.5331H89.1299V54.9448H96.8001V49.5331Z" fill="white"/>
<path d="M108.239 49.5331H100.569V54.9448H108.239V49.5331Z" fill="white"/>
<path d="M96.8001 57.4826H89.1299V62.8943H96.8001V57.4826Z" fill="white"/>
<path d="M108.239 57.4826H100.569V62.8943H108.239V57.4826Z" fill="white"/>
<path d="M96.8001 65.4368H89.1299V70.8486H96.8001V65.4368Z" fill="white"/>
<path d="M108.239 65.4368H100.569V70.8486H108.239V65.4368Z" fill="white"/>
<path d="M96.8001 73.3863H89.1299V78.7981H96.8001V73.3863Z" fill="white"/>
<path d="M108.239 73.3863H100.569V78.7981H108.239V73.3863Z" fill="white"/>
<path d="M122.415 33.6246H114.744V39.0363H122.415V33.6246Z" fill="white"/>
<path d="M122.415 41.5789H114.744V46.9906H122.415V41.5789Z" fill="white"/>
<path d="M122.415 49.5331H114.744V54.9448H122.415V49.5331Z" fill="white"/>
<path d="M122.415 57.4826H114.744V62.8943H122.415V57.4826Z" fill="white"/>
<path d="M122.415 65.4369H114.744V70.8486H122.415V65.4369Z" fill="white"/>
<path d="M122.415 73.3864H114.744V78.7981H122.415V73.3864Z" fill="white"/>
<path d="M96.8001 81.2459H89.1299V86.6577H96.8001V81.2459Z" fill="white"/>
<path d="M108.239 81.2459H100.569V86.6577H108.239V81.2459Z" fill="white"/>
<path d="M122.415 81.2459H114.744V86.6577H122.415V81.2459Z" fill="white"/>
<path d="M96.8001 89.1055H89.1299V94.5172H96.8001V89.1055Z" fill="white"/>
<path d="M108.239 89.1055H100.569V94.5172H108.239V89.1055Z" fill="white"/>
<path d="M122.415 89.1055H114.744V94.5172H122.415V89.1055Z" fill="white"/>
<path d="M96.8001 96.9603H89.1299V102.372H96.8001V96.9603Z" fill="white"/>
<path d="M108.239 96.9603H100.569V102.372H108.239V96.9603Z" fill="white"/>
<path d="M122.415 96.9603H114.744V102.372H122.415V96.9603Z" fill="white"/>
<path d="M96.8001 104.82H89.1299V110.232H96.8001V104.82Z" fill="white"/>
<path d="M108.239 104.82H100.569V110.232H108.239V104.82Z" fill="white"/>
<path d="M122.415 104.82H114.744V110.232H122.415V104.82Z" fill="white"/>
<path d="M96.8001 112.675H89.1299V118.086H96.8001V112.675Z" fill="white"/>
<path d="M108.239 112.675H100.569V118.086H108.239V112.675Z" fill="white"/>
<path d="M122.415 112.675H114.744V118.086H122.415V112.675Z" fill="white"/>
<path d="M191.702 25.4478H187.559V30.1872H191.702V25.4478Z" fill="white"/>
<path d="M198.879 25.4478H194.737V30.1872H198.879V25.4478Z" fill="white"/>
<path d="M191.702 32.583H187.559V37.3224H191.702V32.583Z" fill="white"/>
<path d="M198.879 32.583H194.737V37.3224H198.879V32.583Z" fill="white"/>
<path d="M191.702 39.7181H187.559V44.4575H191.702V39.7181Z" fill="white"/>
<path d="M198.879 39.7181H194.737V44.4575H198.879V39.7181Z" fill="white"/>
<path d="M191.702 46.8532H187.559V51.5926H191.702V46.8532Z" fill="white"/>
<path d="M198.879 46.8532H194.737V51.5926H198.879V46.8532Z" fill="white"/>
<path d="M191.702 54.1636H187.559V58.903H191.702V54.1636Z" fill="white"/>
<path d="M198.879 54.1636H194.737V58.903H198.879V54.1636Z" fill="white"/>
<path d="M191.702 61.4739H187.559V66.2133H191.702V61.4739Z" fill="white"/>
<path d="M198.879 61.4739H194.737V66.2133H198.879V61.4739Z" fill="white"/>
<path d="M191.702 68.7842H187.559V73.5237H191.702V68.7842Z" fill="white"/>
<path d="M198.879 68.7842H194.737V73.5237H198.879V68.7842Z" fill="white"/>
<path d="M191.702 76.0946H187.559V80.834H191.702V76.0946Z" fill="white"/>
<path d="M198.879 76.0946H194.737V80.834H198.879V76.0946Z" fill="white"/>
<path d="M191.702 83.4854H187.559V88.2248H191.702V83.4854Z" fill="white"/>
<path d="M198.879 83.4854H194.737V88.2248H198.879V83.4854Z" fill="white"/>
<path d="M191.702 90.8762H187.559V95.6156H191.702V90.8762Z" fill="white"/>
<path d="M198.879 90.8762H194.737V95.6156H198.879V90.8762Z" fill="white"/>
<path d="M191.702 98.2623H187.559V103.002H191.702V98.2623Z" fill="white"/>
<path d="M198.879 98.2623H194.737V103.002H198.879V98.2623Z" fill="white"/>
<path d="M191.702 105.653H187.559V110.393H191.702V105.653Z" fill="white"/>
<path d="M198.879 105.653H194.737V110.393H198.879V105.653Z" fill="white"/>
<path d="M292.834 26.2196H288.692V31.8065H292.834V26.2196Z" fill="white"/>
<path d="M300.012 26.2196H295.869V31.8065H300.012V26.2196Z" fill="white"/>
<path d="M292.834 34.6236H288.692V40.2105H292.834V34.6236Z" fill="white"/>
<path d="M300.012 34.6236H295.869V40.2105H300.012V34.6236Z" fill="white"/>
<path d="M292.834 43.0324H288.692V48.6193H292.834V43.0324Z" fill="white"/>
<path d="M300.012 43.0324H295.869V48.6193H300.012V43.0324Z" fill="white"/>
<path d="M292.834 51.4364H288.692V57.0233H292.834V51.4364Z" fill="white"/>
<path d="M300.012 51.4364H295.869V57.0233H300.012V51.4364Z" fill="white"/>
<path d="M292.834 60.0488H288.692V65.6357H292.834V60.0488Z" fill="white"/>
<path d="M300.012 60.0488H295.869V65.6357H300.012V60.0488Z" fill="white"/>
<path d="M292.834 68.6611H288.692V74.248H292.834V68.6611Z" fill="white"/>
<path d="M300.012 68.6611H295.869V74.248H300.012V68.6611Z" fill="white"/>
<path d="M292.834 77.2735H288.692V82.8604H292.834V77.2735Z" fill="white"/>
<path d="M300.012 77.2735H295.869V82.8604H300.012V77.2735Z" fill="white"/>
<path d="M292.834 85.8906H288.692V91.4775H292.834V85.8906Z" fill="white"/>
<path d="M300.012 85.8906H295.869V91.4775H300.012V85.8906Z" fill="white"/>
<path d="M292.834 94.5929H288.692V100.18H292.834V94.5929Z" fill="white"/>
<path d="M300.012 94.5929H295.869V100.18H300.012V94.5929Z" fill="white"/>
<path d="M292.834 103.3H288.692V108.887H292.834V103.3Z" fill="white"/>
<path d="M300.012 103.3H295.869V108.887H300.012V103.3Z" fill="white"/>
<path d="M292.834 112.002H288.692V117.589H292.834V112.002Z" fill="white"/>
<path d="M300.012 112.002H295.869V117.589H300.012V112.002Z" fill="white"/>
<path d="M292.834 120.709H288.692V126.296H292.834V120.709Z" fill="white"/>
<path d="M300.012 120.709H295.869V126.296H300.012V120.709Z" fill="white"/>
<path d="M207.051 25.4478H202.909V30.1872H207.051V25.4478Z" fill="white"/>
<path d="M214.229 25.4478H210.086V30.1872H214.229V25.4478Z" fill="white"/>
<path d="M207.051 18.1328H202.909V22.8722H207.051V18.1328Z" fill="white"/>
<path d="M214.229 18.1328H210.086V22.8722H214.229V18.1328Z" fill="white"/>
<path d="M207.051 10.8177H202.909V15.5571H207.051V10.8177Z" fill="white"/>
<path d="M214.229 10.8177H210.086V15.5571H214.229V10.8177Z" fill="white"/>
<path d="M207.051 32.583H202.909V37.3224H207.051V32.583Z" fill="white"/>
<path d="M214.229 32.583H210.086V37.3224H214.229V32.583Z" fill="white"/>
<path d="M207.051 39.7181H202.909V44.4575H207.051V39.7181Z" fill="white"/>
<path d="M214.229 39.7181H210.086V44.4575H214.229V39.7181Z" fill="white"/>
<path d="M207.051 46.8532H202.909V51.5926H207.051V46.8532Z" fill="white"/>
<path d="M214.229 46.8532H210.086V51.5926H214.229V46.8532Z" fill="white"/>
<path d="M207.051 54.1636H202.909V58.903H207.051V54.1636Z" fill="white"/>
<path d="M214.229 54.1636H210.086V58.903H214.229V54.1636Z" fill="white"/>
<path d="M207.051 61.4739H202.909V66.2133H207.051V61.4739Z" fill="white"/>
<path d="M214.229 61.4739H210.086V66.2133H214.229V61.4739Z" fill="white"/>
<path d="M207.051 68.7842H202.909V73.5237H207.051V68.7842Z" fill="white"/>
<path d="M214.229 68.7842H210.086V73.5237H214.229V68.7842Z" fill="white"/>
<path d="M207.051 76.0946H202.909V80.834H207.051V76.0946Z" fill="white"/>
<path d="M214.229 76.0946H210.086V80.834H214.229V76.0946Z" fill="white"/>
<path d="M207.051 83.4854H202.909V88.2248H207.051V83.4854Z" fill="white"/>
<path d="M214.229 83.4854H210.086V88.2248H214.229V83.4854Z" fill="white"/>
<path d="M207.051 90.8762H202.909V95.6156H207.051V90.8762Z" fill="white"/>
<path d="M214.229 90.8762H210.086V95.6156H214.229V90.8762Z" fill="white"/>
<path d="M207.051 98.2623H202.909V103.002H207.051V98.2623Z" fill="white"/>
<path d="M214.229 98.2623H210.086V103.002H214.229V98.2623Z" fill="white"/>
<path d="M207.051 105.653H202.909V110.393H207.051V105.653Z" fill="white"/>
<path d="M214.229 105.653H210.086V110.393H214.229V105.653Z" fill="white"/>
<path d="M69.552 32.1235L28.0715 32.062C28.0715 32.062 30.1358 29.3822 32.4132 29.046C32.4132 29.046 36.8543 15.8884 44.2594 15.8031C51.1436 15.7274 53.8897 23.9136 53.8897 23.9136C53.8897 23.9136 57.0856 20.249 60.13 21.9298C63.1744 23.6106 64.8931 28.421 64.8931 28.421C64.8931 28.421 68.3162 30.277 69.552 32.1235Z" fill="#EBEBEB"/>
<path d="M246.771 16.8258L299.226 16.9063C299.226 16.9063 299.231 13.5542 292.006 12.8866C292.006 12.8866 285.429 -1.77194 275.354 0.178748C269.081 1.39556 265.861 10.0032 265.861 10.0032C265.861 10.0032 261.131 3.21841 257.339 4.52518C253.546 5.83194 251.283 13.0428 251.283 13.0428C251.283 13.0428 247.367 14.932 246.771 16.8258Z" fill="#EBEBEB"/>
<path d="M119.512 15.022L155.178 15.0788C155.178 15.0788 151.817 11.9397 150.321 11.9397C148.825 11.9397 144.473 1.41451 138.896 1.8501C133.314 2.29043 130.345 10.1168 130.345 10.1168C130.345 10.1168 123.57 7.97676 119.512 15.022Z" fill="#EBEBEB"/>
<path d="M219.153 35.9066L249.654 35.9539C249.654 35.9539 248.139 33.9748 246.468 33.7286C246.468 33.7286 243.229 24.0415 237.789 23.9657C232.727 23.8947 230.692 29.9078 230.692 29.9078C230.692 29.9078 228.353 27.2043 226.108 28.4353C223.864 29.6663 222.591 33.1983 222.591 33.1983C222.591 33.1983 220.067 34.5525 219.153 35.9066Z" fill="#EBEBEB"/>
<path d="M9.0351 92.4426H6.89502L7.43952 46.7625L7.48685 42.9558H8.44327L8.4906 46.7625L9.0351 92.4426Z" fill="#FFC727"/>
<path d="M8.49066 46.7625H7.43958L7.48691 42.9558H8.44332L8.49066 46.7625Z" fill="#263238"/>
<path d="M2.62897 29.1022L3.46698 44.0117L4.4518 44.168L5.34666 44.31V28.2121L3.44332 28.8371L2.62897 29.1022Z" fill="#FFC727"/>
<path d="M3.55689 30.8446C3.55689 30.8446 -0.0698684 30.8824 0.00115167 31.086C0.0769064 31.2896 1.53993 31.6968 1.66776 31.7915C1.7956 31.8862 3.18759 34.5329 3.55689 34.5329C3.9262 34.5329 3.55689 30.8446 3.55689 30.8446Z" fill="#FFC727"/>
<path d="M3.82234 35.0632C3.82234 35.0632 0.195574 35.1011 0.266594 35.3047C0.342348 35.5083 1.80537 35.9154 1.93321 36.0101C2.06104 36.1048 3.45303 38.7515 3.82234 38.7515C4.19164 38.7515 3.82234 35.0632 3.82234 35.0632Z" fill="#FFC727"/>
<path d="M4.09199 39.2865C4.09199 39.2865 0.465227 39.3244 0.536247 39.528C0.612002 39.7316 2.07502 40.1388 2.20286 40.2335C2.3307 40.3282 3.72268 42.9748 4.09199 42.9748C4.46129 42.9701 4.09199 39.2865 4.09199 39.2865Z" fill="#FFC727"/>
<path opacity="0.1" d="M3.44318 28.8371L4.45166 44.168L5.34652 44.31V28.2121L3.44318 28.8371Z" fill="black"/>
<path d="M13.3008 29.1022L12.4628 44.0117L11.478 44.1679L10.5831 44.31V28.2121L12.4864 28.8371L13.3008 29.1022Z" fill="#FFC727"/>
<path d="M12.3778 30.8446C12.3778 30.8446 16.0045 30.8824 15.9335 31.086C15.8578 31.2896 14.3948 31.6968 14.2669 31.7915C14.1391 31.8862 12.7471 34.5329 12.3778 34.5329C12.0037 34.5281 12.3778 30.8446 12.3778 30.8446Z" fill="#FFC727"/>
<path d="M12.1082 35.0632C12.1082 35.0632 15.7349 35.1011 15.6639 35.3047C15.5882 35.5083 14.1251 35.9154 13.9973 36.0101C13.8695 36.1048 12.4775 38.7515 12.1082 38.7515C11.7389 38.7468 12.1082 35.0632 12.1082 35.0632Z" fill="#FFC727"/>
<path d="M11.8427 39.2865C11.8427 39.2865 15.4695 39.3244 15.3984 39.528C15.3227 39.7316 13.8597 40.1388 13.7318 40.2335C13.604 40.3282 12.212 42.9748 11.8427 42.9748C11.4687 42.9701 11.8427 39.2865 11.8427 39.2865Z" fill="#FFC727"/>
<path opacity="0.1" d="M12.4864 28.8371L11.478 44.1679L10.5831 44.31V28.2121L12.4864 28.8371Z" fill="black"/>
<path d="M11.3737 27L11.0754 44.6745H4.85401L4.55573 27H11.3737Z" fill="#FFC727"/>
<path d="M7.96485 32.3502C9.18861 32.3502 10.1807 31.3582 10.1807 30.1344C10.1807 28.9106 9.18861 27.9186 7.96485 27.9186C6.74108 27.9186 5.74902 28.9106 5.74902 30.1344C5.74902 31.3582 6.74108 32.3502 7.96485 32.3502Z" fill="#DD6A57"/>
<path d="M7.96485 43.5382C9.18861 43.5382 10.1807 42.5462 10.1807 41.3224C10.1807 40.0987 9.18861 39.1066 7.96485 39.1066C6.74108 39.1066 5.74902 40.0987 5.74902 41.3224C5.74902 42.5462 6.74108 43.5382 7.96485 43.5382Z" fill="white"/>
<path d="M7.96485 38.0034C9.18861 38.0034 10.1807 37.0114 10.1807 35.7876C10.1807 34.5638 9.18861 33.5718 7.96485 33.5718C6.74108 33.5718 5.74902 34.5638 5.74902 35.7876C5.74902 37.0114 6.74108 38.0034 7.96485 38.0034Z" fill="white"/>
<path d="M9.67893 100.203H6.25104L6.54458 91.2258L6.63454 88.4371H9.22442L9.33331 91.2258L9.67893 100.203Z" fill="#FFC727"/>
<path d="M9.33359 91.2258H6.54486L6.63482 88.4371H9.2247L9.33359 91.2258Z" fill="#455A64"/>
<path d="M30.5404 133.901H86.8735C86.8735 133.901 80.7042 107.581 58.707 107.581C36.7097 107.581 31.5063 128.026 30.5404 133.901Z" fill="#FFC727"/>
<path opacity="0.2" d="M30.5404 133.901H86.8735C86.8735 133.901 80.7042 107.581 58.707 107.581C36.7097 107.581 31.5063 128.026 30.5404 133.901Z" fill="black"/>
<path d="M194.038 136.742H250.372C250.372 136.742 244.202 110.422 222.205 110.422C200.212 110.422 195.009 130.866 194.038 136.742Z" fill="#FFC727"/>
<path opacity="0.2" d="M194.038 136.742H250.372C250.372 136.742 244.202 110.422 222.205 110.422C200.212 110.422 195.009 130.866 194.038 136.742Z" fill="black"/>
<path d="M17.6578 85.8966C16.4505 87.8141 14.3293 108.95 14.2062 109.693C14.0831 110.432 12.3266 113.67 12.2934 114.286C12.2603 114.901 11.8294 124.427 12.0756 125.043C12.3218 125.658 13.7091 127.907 14.0168 128.281C14.3246 128.651 22.3073 135.525 23.2021 135.615C24.097 135.71 32.3542 135.772 32.5105 135.615C32.6667 135.459 33.6184 110.034 58.679 110.034C83.7349 110.034 83.4603 137.036 83.9195 137.126C84.3835 137.22 196.543 139.777 196.543 139.777C196.543 135.649 196.865 111.052 221.447 111.052C237.46 111.052 245.552 124.252 245.826 133.982C245.94 138.035 245.263 142.49 245.485 142.49C246.224 142.49 248.752 142.675 249.183 142.49C249.614 142.305 254.855 138.854 255.286 138.731C255.717 138.608 258.738 138.546 259.476 138.361C260.215 138.177 265.395 133.646 265.485 133.461C265.575 133.276 265.731 131.487 265.764 131.335C265.797 131.179 271.034 124.768 271.28 124.063C271.526 123.353 271.621 117.496 271.621 116.913C271.621 116.326 262.095 100.887 259.879 99.2199C257.658 97.5533 241.849 92.009 237.223 91.1757C232.598 90.3424 207.172 86.5547 206.249 85.9061C205.326 85.2574 161.928 60.3672 154.376 58.5349C148.273 57.0577 77.6319 59.0889 73.9341 59.2735C70.2363 59.4582 60.0047 61.3094 59.0151 61.3094C58.0256 61.3094 46.6861 61.2479 46.009 61.5556C45.332 61.8634 46.009 64.5764 46.8707 65.0688C47.7372 65.5517 19.7553 82.5681 17.6578 85.8966Z" fill="#FFC727"/>
<path d="M19.2769 84.2915C19.5468 84.5377 23.9642 84.6466 24.4235 84.462C24.8875 84.2773 52.7084 65.7695 52.7273 65.2298C52.7368 64.9599 47.5097 65.0309 46.8753 65.0593C46.2456 65.0924 18.7655 83.8275 19.2769 84.2915Z" fill="#455A64"/>
<path d="M50.2606 83.998C51.468 87.5584 197.589 94.2154 198.394 92.492C198.986 91.2136 185.914 80.7168 179.811 77.2984C173.708 73.8752 156.232 63.9845 147.634 62.9666C139.036 61.9486 121.588 62.0386 106.395 62.3179C91.3244 62.5973 73.5694 62.9666 67.2818 65.6464C61.7659 67.9995 49.3042 81.1666 50.2606 83.998Z" fill="#263238"/>
<path d="M54.337 81.9194C54.7063 83.2546 86.9778 86.7298 124.794 88.4864C162.609 90.2429 181.288 90.5223 181.752 90.3376C182.216 90.153 180.459 80.0729 179.811 79.2396C179.162 78.4063 152.07 64.5384 147.818 64.1691C143.567 63.7998 120.589 63.7525 108.985 63.9371C97.3799 64.1218 73.2 65.509 69.0855 67.1756C65.4635 68.6339 53.963 80.5795 54.337 81.9194Z" fill="#455A64"/>
<g opacity="0.1">
<path opacity="0.1" d="M104.397 64.0508L82.7357 85.7119C78.8722 85.371 75.3022 85.0348 72.0874 84.7034L92.1719 64.6189C96.452 64.3633 100.718 64.1644 104.397 64.0508Z" fill="white"/>
<path opacity="0.1" d="M181.676 88.1976L179.489 90.385C177.292 90.3803 173.49 90.314 168.054 90.1672L179.323 78.8987C179.598 79.0644 179.763 79.1828 179.806 79.2396C180.27 79.8314 181.302 85.1437 181.676 88.1976Z" fill="white"/>
<path opacity="0.1" d="M120.557 63.8424L97.5224 86.8766C95.6759 86.7488 93.8625 86.6162 92.0964 86.4742L114.704 63.8661C116.556 63.8566 118.53 63.8424 120.557 63.8424Z" fill="white"/>
<path opacity="0.1" d="M170.001 73.9368L154.22 89.7127C152.435 89.6464 150.56 89.5801 148.605 89.4996L166.118 71.9955C167.449 72.6537 168.755 73.3023 170.001 73.9368Z" fill="white"/>
<path opacity="0.1" d="M88.2943 64.8557L68.8064 84.3483H68.8017C68.2951 84.2915 67.8027 84.2347 67.315 84.1826L86.5188 64.9788C87.1059 64.9409 87.7025 64.8936 88.2943 64.8557Z" fill="white"/>
<path opacity="0.1" d="M173.358 75.6555L159.135 89.8879C158.614 89.8689 158.079 89.8547 157.534 89.831L172.273 75.092C172.643 75.2814 173.002 75.4708 173.358 75.6555Z" fill="white"/>
<path opacity="0.1" d="M152.918 65.8783L130.073 88.7231C129.543 88.6995 129.017 88.6805 128.482 88.6569L151.739 65.4001C152.108 65.5469 152.506 65.7079 152.918 65.8783Z" fill="white"/>
<path opacity="0.1" d="M72.8309 66.3424L56.5247 82.6486C55.9802 82.5397 55.5304 82.4308 55.1848 82.3314L70.8234 66.6975C71.401 66.5744 72.0733 66.456 72.8309 66.3424Z" fill="white"/>
</g>
<path d="M74.578 66.0961C74.7295 66.0819 74.7958 66.295 74.668 66.6501C73.9057 68.7475 67.9968 80.6268 66.5149 83.4013C66.2781 83.8464 65.7905 83.96 65.6768 83.9884L76.0978 85.1011C76.0978 85.1011 75.4728 84.8691 75.5865 84.1589C75.6906 83.5007 79.5589 69.5382 80.7709 66.1056C80.9272 65.6652 81.4243 65.3764 81.4669 65.3764C81.6753 65.3575 79.6914 65.4048 77.807 65.6037C76.1546 65.7741 74.578 66.0961 74.578 66.0961Z" fill="#263238"/>
<path d="M88.3179 64.8556C88.3179 64.8556 88.5072 64.9645 88.5167 65.3386C88.583 68.6244 88.9523 85.0774 88.6351 85.9817C88.5925 86.0954 88.5451 86.1711 88.4836 86.1948L90.4532 86.351C90.4201 86.3274 90.2922 86.1096 90.2733 85.8586C90.0555 83.0794 89.8519 67.9994 89.8898 65.206C89.8945 64.974 90.0602 64.7657 90.0744 64.7373L88.3179 64.8556Z" fill="#263238"/>
<path d="M120.712 64.5195C120.944 65.2486 121.328 86.7298 121.328 87.4211C121.328 88.1123 120.542 88.278 120.542 88.278L132.753 88.8462C132.753 88.8462 131.962 88.6237 131.825 88.2544C131.687 87.8851 127.848 64.7231 127.871 64.42C127.895 64.1218 128.496 63.8329 128.496 63.8329L119.988 63.8377C119.983 63.8377 120.561 64.0507 120.712 64.5195Z" fill="#263238"/>
<path d="M19.8167 88.9173C18.3158 89.1114 14.9447 92.6151 14.6985 93.3537C14.4523 94.0923 13.5291 99.0874 14.0215 99.826C14.5139 100.565 16.3036 102.416 17.8424 102.477C19.3811 102.539 26.9045 98.9643 27.5816 98.3488C28.2586 97.7332 28.751 93.9787 27.9509 92.7713C27.1507 91.564 21.7248 88.6711 19.8167 88.9173Z" fill="white"/>
<path d="M27.5816 98.3488C26.9045 98.9643 19.3811 102.539 17.8423 102.477C16.6681 102.43 15.3472 101.341 14.5707 100.498C15.6975 101.218 16.7534 101.53 17.5819 101.45C18.4105 101.374 25.4557 98.3441 26.36 97.5155C27.2643 96.6869 27.3022 93.5668 27.1838 93.0034C27.0702 92.4399 22.5155 89.5092 22.5155 89.5092C24.7644 90.3756 27.4111 91.957 27.9509 92.7714C28.751 93.9787 28.2586 97.7286 27.5816 98.3488Z" fill="#EBEBEB"/>
<path d="M13.5904 116.809C13.1738 117.226 13.0365 120.355 13.4673 120.63C13.8982 120.909 16.4265 120.876 16.9189 120.63C17.4113 120.384 18.6755 118.04 18.5855 117.24C18.4908 116.44 14.0828 116.317 13.5904 116.809Z" fill="white"/>
<path d="M238.615 99.4846C239.945 101.639 249.713 105.45 253.364 106.052C255.66 106.43 263.628 106.932 264.088 106.516C264.552 106.099 260.712 100.782 258.723 99.4893C256.735 98.1967 246.797 94.8683 243.79 95.0056C240.788 95.1429 237.275 97.3161 238.615 99.4846Z" fill="white"/>
<path d="M264.092 106.516C263.628 106.933 255.665 106.431 253.364 106.052C249.713 105.451 239.946 101.639 238.615 99.4851C237.275 97.3166 240.788 95.1434 243.795 95.0013C243.998 94.9919 244.235 94.9966 244.496 95.0156C241.697 96.0477 241.124 98.2351 242.829 99.4851C244.543 100.745 249.997 103.656 252.18 104.267C254.282 104.859 262.127 106.08 262.805 105.545C263.065 105.342 263.127 104.892 263.103 104.419C263.822 105.498 264.268 106.36 264.092 106.516Z" fill="#EBEBEB"/>
<g opacity="0.5">
<path opacity="0.5" d="M51.0178 98.9832C51.032 100.281 50.5112 101.578 49.5926 102.501C48.6883 103.439 47.4005 104.011 46.0748 104.03C44.7538 104.059 43.4139 103.543 42.4528 102.605C41.4916 101.668 40.9282 100.333 40.9235 98.9832C40.9282 97.6339 41.4916 96.2987 42.4528 95.3612C43.4139 94.419 44.7538 93.9029 46.0748 93.9361C47.4005 93.955 48.6883 94.5279 49.5926 95.4701C50.5064 96.3934 51.032 97.6859 51.0178 98.9832ZM51.0178 98.9832C51.013 97.6859 50.4686 96.4076 49.5453 95.508C48.622 94.6037 47.3389 94.1113 46.07 94.1444C44.7964 94.1633 43.5654 94.7173 42.699 95.6169C41.8183 96.507 41.3212 97.7475 41.3306 98.988C41.3164 100.233 41.8183 101.469 42.699 102.359C43.5654 103.259 44.8012 103.808 46.07 103.832C47.3389 103.86 48.622 103.368 49.5453 102.463C50.4686 101.559 51.013 100.281 51.0178 98.9832Z" fill="black"/>
<path opacity="0.5" d="M30.5408 114.006C30.0389 112.894 29.5797 111.762 29.1252 110.63C28.6706 109.499 28.254 108.353 27.8136 107.217C27.4065 106.066 26.9851 104.925 26.5968 103.77C26.2086 102.615 25.8251 101.455 25.4842 100.285C25.9861 101.398 26.4453 102.529 26.8999 103.661C27.3544 104.793 27.771 105.938 28.2066 107.075C28.6138 108.225 29.0352 109.366 29.4234 110.522C29.8164 111.672 30.1999 112.832 30.5408 114.006Z" fill="black"/>
<path opacity="0.5" d="M13.2021 114.006C15.631 113.964 18.0552 113.964 20.4841 113.973L27.7613 114.049L35.0384 114.224C37.4626 114.3 39.8868 114.38 42.3156 114.513C39.8868 114.556 37.4626 114.556 35.0337 114.546L27.7565 114.466L20.4793 114.29C18.0505 114.215 15.6263 114.134 13.2021 114.006Z" fill="black"/>
<path opacity="0.5" d="M127.772 90.3945L128.605 96.3081L128.965 99.272C129.022 99.7691 129.074 100.262 129.112 100.763C129.15 101.265 129.121 101.762 129.126 102.26L129.017 114.205L128.922 120.176L128.875 123.163L128.851 124.655L128.738 126.141L128.278 132.097L127.772 138.049L128.075 132.088L128.42 126.132L128.506 124.645L128.52 123.154L128.548 120.171L128.61 114.205L128.813 102.274C128.813 101.777 128.856 101.275 128.828 100.787C128.799 100.295 128.757 99.7975 128.709 99.3051L128.406 96.3365L127.772 90.3945Z" fill="black"/>
<path opacity="0.5" d="M193.342 93.1075L194.346 99.0542L194.848 102.028L194.976 102.771C195.019 103.017 195.066 103.263 195.066 103.519C195.08 104.026 195.08 104.527 195.075 105.029C195.042 109.049 194.943 113.069 194.82 117.084C194.787 118.088 194.744 119.091 194.697 120.095C194.701 121.113 194.379 122.107 194.119 123.068C193.565 125.005 192.94 126.918 192.249 128.807C191.548 130.691 190.805 132.571 189.844 134.346L189.469 135.009C189.342 135.227 189.195 135.435 189.058 135.648C188.925 135.866 188.764 136.065 188.598 136.259L188.352 136.558C188.158 136.685 188.044 136.657 187.912 136.69C186.899 136.799 185.895 136.813 184.891 136.846C176.852 137.012 168.812 136.936 160.773 136.884C152.733 136.818 144.698 136.709 136.659 136.562C128.624 136.392 120.585 136.193 112.555 135.895C108.54 135.729 104.52 135.601 100.51 135.237C100.003 135.175 99.5202 135.147 98.9852 134.995C98.7012 134.886 98.5354 134.754 98.2987 134.649C98.0762 134.536 97.8489 134.432 97.6216 134.328C96.7126 133.916 95.7704 133.551 94.8661 133.096C93.957 132.647 93.0858 132.102 92.333 131.411C91.6323 130.644 91.0878 129.801 90.5054 128.977C88.2423 125.649 86.0785 122.264 83.9148 118.878C81.7558 115.488 79.6157 112.084 77.4946 108.675C75.3782 105.257 73.2712 101.838 71.1975 98.3914L70.4304 97.094C70.3641 96.9899 70.3073 96.8668 70.2458 96.7532L70.1558 96.5827C70.1369 96.5212 70.1369 96.4596 70.1274 96.3981L70.0564 95.6452C69.9712 94.6415 69.8907 93.6425 69.8575 92.634C69.8528 92.3831 69.8433 92.1321 69.8575 91.8764C69.8859 91.6208 69.9522 91.3793 70.0185 91.1378C70.1558 90.6549 70.3215 90.1767 70.4873 89.7032C70.8234 88.7563 71.1832 87.8188 71.5573 86.8861C71.1927 87.8236 70.8423 88.761 70.5109 89.7127C70.3499 90.1862 70.189 90.6644 70.0517 91.1473C69.9854 91.3888 69.9191 91.635 69.8954 91.8812C69.8812 92.1321 69.8907 92.3831 69.9001 92.634C69.9428 93.6377 70.028 94.6368 70.1227 95.6358L70.1984 96.3838C70.2079 96.4454 70.2079 96.5117 70.2268 96.5685L70.3168 96.7295C70.3784 96.8384 70.4304 96.9425 70.4967 97.0514L71.2732 98.3393C73.3707 101.767 75.5107 105.167 77.6555 108.566C81.9452 115.36 86.2158 122.174 90.7232 128.821C91.3009 129.635 91.8643 130.488 92.5177 131.203C93.2468 131.87 94.0943 132.396 94.9892 132.836C95.884 133.281 96.8167 133.641 97.74 134.053C97.972 134.157 98.1993 134.261 98.4265 134.375C98.6491 134.47 98.8953 134.64 99.0847 134.706C99.5202 134.829 100.046 134.872 100.533 134.924C104.525 135.274 108.549 135.393 112.56 135.544C120.59 135.819 128.624 135.989 136.659 136.141C144.694 136.311 152.728 136.439 160.768 136.534C168.803 136.61 176.842 136.709 184.872 136.567C185.871 136.539 186.884 136.524 187.869 136.425C187.983 136.411 188.13 136.378 188.149 136.373L188.385 136.089C188.541 135.899 188.702 135.715 188.83 135.497C188.968 135.289 189.11 135.085 189.238 134.872L189.607 134.219C190.563 132.467 191.307 130.592 192.012 128.717C192.708 126.837 193.338 124.929 193.896 123.002C194.166 122.032 194.474 121.085 194.474 120.081L194.611 117.074C194.772 113.059 194.905 109.044 194.971 105.025C194.976 104.523 194.985 104.021 194.976 103.519C194.976 103.268 194.933 103.022 194.891 102.776L194.772 102.032L194.294 99.0589L193.342 93.1075Z" fill="black"/>
<path opacity="0.5" d="M245.064 103.325C244.05 104.253 242.867 104.958 241.73 105.716C240.58 106.459 239.41 107.16 238.241 107.87C237.057 108.552 235.883 109.248 234.685 109.911C233.487 110.574 232.29 111.227 231.063 111.833C232.2 111.076 233.36 110.351 234.524 109.631L238.028 107.51L241.56 105.441L243.326 104.409C243.918 104.068 244.519 103.742 245.064 103.325Z" fill="black"/>
<path opacity="0.5" d="M75.8749 115.081L91.5324 115.493L107.19 115.966L138.5 116.923L169.806 118.017L185.459 118.566L201.107 119.181L185.449 118.769L169.797 118.296L138.486 117.339L107.181 116.241L91.5277 115.692L75.8749 115.081Z" fill="black"/>
<path opacity="0.5" d="M74.9566 92.6435L74.3458 92.6766L74.1943 92.6813C74.1611 92.6719 74.1564 92.7098 74.1375 92.7571C74.1091 92.8471 74.0949 92.9465 74.0807 93.0459C74.038 93.4484 74.038 93.8555 74.057 94.258C74.0664 94.4568 74.0807 94.6604 74.1091 94.8546C74.1233 94.9492 74.1469 95.0487 74.1753 95.115C74.1801 95.1292 74.1943 95.1386 74.1848 95.1292H74.2322C74.2606 95.1292 74.2937 95.1386 74.3505 95.1434C74.7482 95.1812 75.1554 95.1907 75.5626 95.2049C77.1913 95.257 78.8201 95.3091 80.4488 95.3375L82.8919 95.4085L84.1134 95.4274H84.4164C84.4685 95.4274 84.5206 95.4274 84.5537 95.4227L84.6153 95.418C84.639 95.418 84.6579 95.4132 84.639 95.4132C84.62 95.4464 84.6863 95.3422 84.7005 95.2617C84.7242 95.1718 84.7431 95.0818 84.7573 94.9824C84.8142 94.5941 84.8236 94.187 84.8094 93.7893C84.7999 93.5904 84.7857 93.3868 84.7526 93.1974C84.7384 93.1122 84.7053 92.9891 84.6911 92.9701C84.6768 92.9465 84.5537 92.9181 84.4638 92.9039C83.6731 92.7666 82.8493 92.7192 82.0396 92.6387C82.8587 92.6245 83.6684 92.6292 84.4969 92.7003C84.6011 92.7239 84.7005 92.705 84.8426 92.8092C84.9609 92.9512 84.9515 93.0412 84.9893 93.1501C85.0367 93.3584 85.0556 93.5667 85.0793 93.7703C85.1124 94.187 85.1219 94.5989 85.0793 95.0203C85.0698 95.1244 85.0509 95.2333 85.0272 95.3422C84.9846 95.4511 84.9988 95.5695 84.8047 95.7163C84.7431 95.7541 84.71 95.7541 84.6863 95.7541L84.5964 95.7636C84.5301 95.7683 84.4827 95.7683 84.4306 95.7731L84.1229 95.7778H82.8966L80.4488 95.7447C78.8153 95.6831 77.1866 95.6358 75.5531 95.5174C75.146 95.4843 74.7388 95.4559 74.3269 95.399C74.2842 95.3943 74.2132 95.3801 74.1422 95.3612C74.1091 95.347 74.0759 95.347 74.0428 95.3233C73.9954 95.2807 73.9812 95.2475 73.9623 95.2144C73.9102 95.0913 73.9007 94.9871 73.8865 94.883C73.8629 94.6699 73.8581 94.4663 73.8629 94.258C73.8771 93.8461 73.9055 93.4341 73.9812 93.027C74.0002 92.9275 74.0238 92.8234 74.0617 92.724C74.0712 92.7003 74.0854 92.6719 74.1043 92.6482C74.1138 92.6198 74.1848 92.5914 74.2038 92.6056L74.3553 92.6103L74.9566 92.6435Z" fill="black"/>
<path opacity="0.5" d="M134.874 94.1254L134.263 94.1586L134.111 94.1633C134.078 94.1538 134.074 94.1917 134.055 94.239C134.026 94.329 134.012 94.4284 133.998 94.5279C133.955 94.9303 133.955 95.3375 133.974 95.7399C133.984 95.9388 133.998 96.1424 134.026 96.3365C134.04 96.4312 134.064 96.5306 134.092 96.5969C134.097 96.6111 134.111 96.6206 134.102 96.6111H134.149C134.178 96.6111 134.211 96.6206 134.268 96.6253C134.665 96.6632 135.073 96.6727 135.48 96.6869C137.108 96.7389 138.737 96.791 140.366 96.8194L142.809 96.8905L144.031 96.9094H144.334C144.386 96.9094 144.438 96.9094 144.471 96.9047L144.532 96.8999C144.556 96.8999 144.575 96.8952 144.556 96.8952C144.537 96.9283 144.603 96.8242 144.618 96.7437C144.641 96.6537 144.66 96.5638 144.674 96.4643C144.731 96.0761 144.741 95.6689 144.727 95.2712C144.717 95.0723 144.703 94.8688 144.67 94.6794C144.656 94.5941 144.622 94.471 144.608 94.4521C144.594 94.4284 144.471 94.4 144.381 94.3858C143.59 94.2485 142.766 94.2012 141.957 94.1207C142.776 94.1065 143.586 94.1112 144.414 94.1822C144.518 94.2059 144.618 94.187 144.76 94.2911C144.873 94.4332 144.869 94.5231 144.902 94.632C144.949 94.8403 144.968 95.0487 144.992 95.2523C145.025 95.6689 145.034 96.0808 144.992 96.5022C144.982 96.6064 144.963 96.7153 144.94 96.8242C144.897 96.9331 144.911 97.0514 144.717 97.1982C144.656 97.2361 144.622 97.2361 144.599 97.2361L144.509 97.2456C144.442 97.2503 144.395 97.2503 144.343 97.255L144.035 97.2598H142.809L140.361 97.2266C138.728 97.1651 137.099 97.1177 135.466 96.9994C135.058 96.9662 134.651 96.9378 134.239 96.881C134.197 96.8763 134.126 96.862 134.055 96.8431C134.021 96.8289 133.988 96.8289 133.955 96.8052C133.908 96.7626 133.894 96.7295 133.875 96.6963C133.823 96.5732 133.813 96.4691 133.799 96.3649C133.775 96.1518 133.771 95.9483 133.775 95.7399C133.789 95.328 133.818 94.9161 133.894 94.5089C133.913 94.4095 133.936 94.3053 133.974 94.2059C133.984 94.1822 133.998 94.1538 134.017 94.1301C134.026 94.1017 134.097 94.0733 134.116 94.0875L134.268 94.0923L134.874 94.1254Z" fill="black"/>
</g>
<path d="M58.2194 158.441C71.0873 158.441 81.5187 148.01 81.5187 135.142C81.5187 122.274 71.0873 111.843 58.2194 111.843C45.3516 111.843 34.9201 122.274 34.9201 135.142C34.9201 148.01 45.3516 158.441 58.2194 158.441Z" fill="#263238"/>
<path d="M58.2194 152.153C67.6147 152.153 75.231 144.537 75.231 135.142C75.231 125.747 67.6147 118.13 58.2194 118.13C48.8241 118.13 41.2077 125.747 41.2077 135.142C41.2077 144.537 48.8241 152.153 58.2194 152.153Z" fill="#DBDBDB"/>
<path d="M58.2194 150.828C66.8825 150.828 73.9053 143.805 73.9053 135.142C73.9053 126.479 66.8825 119.456 58.2194 119.456C49.5562 119.456 42.5334 126.479 42.5334 135.142C42.5334 143.805 49.5562 150.828 58.2194 150.828Z" fill="#A6A6A6"/>
<path d="M60.6818 131.207H55.753C57.4149 128.807 51.6196 120.427 51.6196 120.427L54.2095 119.56C55.9329 122.519 56.7946 123.386 58.215 123.386C59.6354 123.386 60.4971 122.519 62.2253 119.56L64.8104 120.427C64.8152 120.422 59.0199 128.802 60.6818 131.207Z" fill="#DBDBDB"/>
<path d="M55.341 131.506L53.8164 136.193C52.0457 133.868 42.2828 136.79 42.2828 136.79L42.2591 134.058C45.6065 133.333 46.6955 132.779 47.1358 131.43C47.5761 130.081 47.0174 128.992 44.7353 126.435L46.3593 124.243C46.3641 124.243 52.5428 132.344 55.341 131.506Z" fill="#DBDBDB"/>
<path d="M53.9772 136.676L57.9638 139.574C55.2082 140.539 54.9668 150.724 54.9668 150.724L52.3579 149.905C52.7036 146.496 52.5142 145.288 51.3684 144.455C50.2226 143.622 49.0153 143.816 45.8762 145.194L44.2948 142.973C44.2948 142.973 53.9109 139.597 53.9772 136.676Z" fill="#DBDBDB"/>
<path d="M58.4706 139.574L62.4572 136.676C62.5235 139.597 72.1396 142.973 72.1396 142.973L70.5535 145.198C67.4192 143.816 66.2118 143.622 65.066 144.455C63.9202 145.288 63.7309 146.496 64.0718 149.909L61.4677 150.728C61.4677 150.724 61.231 140.539 58.4706 139.574Z" fill="#DBDBDB"/>
<path d="M62.6178 136.193L61.0932 131.506C63.8914 132.344 70.0701 124.243 70.0701 124.243L71.6941 126.44C69.412 128.992 68.8533 130.081 69.2937 131.43C69.734 132.779 70.823 133.329 74.1704 134.062L74.1467 136.79C74.1467 136.79 64.3885 133.868 62.6178 136.193Z" fill="#DBDBDB"/>
<path d="M58.2195 139.583C60.735 139.583 62.7742 137.544 62.7742 135.028C62.7742 132.513 60.735 130.473 58.2195 130.473C55.704 130.473 53.6647 132.513 53.6647 135.028C53.6647 137.544 55.704 139.583 58.2195 139.583Z" fill="#DBDBDB"/>
<path d="M221.253 158.441C234.121 158.441 244.552 148.01 244.552 135.142C244.552 122.274 234.121 111.843 221.253 111.843C208.385 111.843 197.954 122.274 197.954 135.142C197.954 148.01 208.385 158.441 221.253 158.441Z" fill="#263238"/>
<path d="M221.253 152.153C230.648 152.153 238.265 144.537 238.265 135.142C238.265 125.747 230.648 118.13 221.253 118.13C211.858 118.13 204.241 125.747 204.241 135.142C204.241 144.537 211.858 152.153 221.253 152.153Z" fill="#DBDBDB"/>
<path d="M221.253 150.828C229.916 150.828 236.939 143.805 236.939 135.142C236.939 126.479 229.916 119.456 221.253 119.456C212.59 119.456 205.567 126.479 205.567 135.142C205.567 143.805 212.59 150.828 221.253 150.828Z" fill="#A6A6A6"/>
<path d="M223.715 131.207H218.786C220.448 128.807 214.653 120.427 214.653 120.427L217.243 119.56C218.966 122.519 219.828 123.386 221.249 123.386C222.669 123.386 223.531 122.519 225.259 119.56L227.844 120.427C227.849 120.422 222.053 128.802 223.715 131.207Z" fill="#DBDBDB"/>
<path d="M218.374 131.506L216.85 136.193C215.079 133.868 205.316 136.79 205.316 136.79L205.293 134.058C208.64 133.333 209.729 132.779 210.169 131.43C210.61 130.081 210.051 128.992 207.769 126.435L209.393 124.243C209.398 124.243 215.576 132.344 218.374 131.506Z" fill="#DBDBDB"/>
<path d="M217.011 136.676L220.997 139.574C218.242 140.539 218 150.724 218 150.724L215.391 149.905C215.737 146.496 215.548 145.288 214.402 144.455C213.256 143.622 212.049 143.816 208.91 145.194L207.328 142.973C207.328 142.973 216.944 139.597 217.011 136.676Z" fill="#DBDBDB"/>
<path d="M221.509 139.574L225.495 136.676C225.562 139.597 235.178 142.973 235.178 142.973L233.592 145.198C230.457 143.816 229.25 143.622 228.104 144.455C226.958 145.288 226.769 146.496 227.11 149.909L224.506 150.728C224.501 150.724 224.264 140.539 221.509 139.574Z" fill="#DBDBDB"/>
<path d="M225.652 136.193L224.127 131.506C226.925 132.344 233.104 124.243 233.104 124.243L234.728 126.44C232.446 128.992 231.887 130.081 232.328 131.43C232.768 132.779 233.857 133.329 237.204 134.062L237.181 136.79C237.181 136.79 227.423 133.868 225.652 136.193Z" fill="#DBDBDB"/>
<path d="M221.253 139.583C223.769 139.583 225.808 137.544 225.808 135.028C225.808 132.513 223.769 130.473 221.253 130.473C218.738 130.473 216.698 132.513 216.698 135.028C216.698 137.544 218.738 139.583 221.253 139.583Z" fill="#DBDBDB"/>
<path d="M176.402 81.6401C175.554 82.4876 175.63 90.0867 176.245 90.7023C176.861 91.3178 185.308 91.8717 185.985 87.156C186.666 82.445 177.727 80.3144 176.402 81.6401Z" fill="#FFC727"/>
<path d="M207.219 86.1807H200.349C182.471 74.3866 157.936 62.7204 157.936 62.7204L162.008 61.7355C176.861 68.9275 205.501 85.371 206.254 85.8966C206.348 85.9629 206.68 86.0576 207.219 86.1807Z" fill="#455A64"/>
<g opacity="0.5">
<path opacity="0.5" d="M30.5408 119.92C31.9376 117.534 33.7651 115.417 35.7632 113.504C37.7849 111.606 40.0386 109.953 42.4769 108.618C47.3442 105.924 52.9453 104.627 58.5038 104.674L60.5871 104.774L61.6287 104.826C61.9743 104.864 62.3199 104.92 62.6608 104.968L64.7252 105.261C65.4069 105.403 66.0793 105.583 66.7563 105.744C69.4361 106.464 72.0781 107.472 74.3981 109.021C76.737 110.526 78.825 112.411 80.5863 114.556C82.3571 116.696 83.7159 119.129 84.9564 121.591C83.6023 119.186 82.2008 116.795 80.378 114.731C78.593 112.643 76.5003 110.825 74.1756 109.385C69.5072 106.473 63.9629 105.29 58.5038 105.238C55.7624 105.181 53.0258 105.503 50.3554 106.114C47.6898 106.743 45.1094 107.723 42.6853 109.002C40.2564 110.275 37.9979 111.871 35.9573 113.713C33.9024 115.54 32.0465 117.605 30.5408 119.92Z" fill="white"/>
<path opacity="0.5" d="M193.792 119.92C195.189 117.534 197.017 115.417 199.015 113.504C201.036 111.606 203.29 109.953 205.728 108.618C210.596 105.924 216.197 104.627 221.755 104.674L223.839 104.774L224.88 104.826C225.226 104.864 225.571 104.92 225.912 104.968L227.977 105.261C228.658 105.403 229.331 105.583 230.008 105.744C232.688 106.464 235.33 107.472 237.65 109.021C239.988 110.526 242.076 112.411 243.838 114.556C245.609 116.696 246.967 119.129 248.208 121.591C246.854 119.186 245.452 116.795 243.629 114.731C241.844 112.643 239.752 110.825 237.427 109.385C232.759 106.473 227.214 105.29 221.755 105.238C219.014 105.181 216.277 105.503 213.607 106.114C210.941 106.743 208.361 107.723 205.937 109.002C203.508 110.275 201.249 111.871 199.209 113.713C197.154 115.54 195.293 117.605 193.792 119.92Z" fill="white"/>
<path opacity="0.5" d="M33.9122 81.2519C37.5437 78.4063 41.2272 75.6271 44.9345 72.8857C48.6512 70.1538 52.3916 67.455 56.2456 64.8983C56.7333 64.5858 57.2257 64.2781 57.7276 63.9845C57.9785 63.8377 58.2342 63.6957 58.504 63.5631C58.7834 63.4258 59.0769 63.3217 59.3515 63.2459C60.4689 62.9192 61.5863 62.6351 62.7084 62.3558C64.9527 61.8066 67.1969 61.2716 69.4648 60.8312C71.7374 60.3388 74.0622 60.211 76.368 60.121C78.6785 60.0689 80.9843 60.0737 83.29 60.1826C80.9843 60.2015 78.6785 60.2489 76.3822 60.3909C74.0858 60.5329 71.7895 60.7081 69.5548 61.2479C67.3105 61.7545 65.0663 62.2706 62.8363 62.8435C61.7236 63.1323 60.6062 63.4211 59.5125 63.7525C59.2332 63.833 58.987 63.923 58.7455 64.0461C58.4993 64.1739 58.2531 64.3112 58.0069 64.458C57.5145 64.7468 57.0316 65.0593 56.5486 65.367C52.6899 67.8669 48.9495 70.5752 45.1854 73.2313L33.9122 81.2519Z" fill="white"/>
</g>
<path opacity="0.1" d="M214.658 111.767C196.808 115.848 196.543 136.065 196.543 139.772C196.543 139.772 84.3833 137.216 83.9193 137.121C83.5453 137.045 83.6589 119.342 70.4208 112.595C76.3675 115.536 83.9856 122.657 86.869 133.054C87.1815 134.162 103.511 135.899 131.436 136.79C159.366 137.675 183.627 137.116 188.234 136.472C192.84 135.824 198.247 111.696 214.658 111.767Z" fill="black"/>
<path opacity="0.1" d="M271.289 124.053C271.043 124.763 265.801 131.169 265.773 131.326C265.74 131.482 265.588 133.267 265.494 133.456C265.399 133.641 260.224 138.172 259.481 138.357C258.742 138.541 255.721 138.603 255.295 138.726C254.86 138.849 249.623 142.301 249.188 142.485C248.761 142.675 246.228 142.485 245.49 142.485C245.267 142.485 245.944 138.03 245.831 133.982C245.632 126.918 241.314 118.026 232.839 113.684C237.436 114.664 245.106 120.943 248.203 127.415C251.299 133.887 250.504 134.365 251.228 135.147C251.948 135.923 254.353 134.351 255.461 134.072C256.574 133.797 260.177 133.703 261.569 133.428C262.951 133.149 263.183 130.653 264.13 130.095C265.077 129.541 269.916 125.687 271.289 124.053Z" fill="black"/>
<path d="M230.286 153.187C231.209 153.485 257.544 153.144 258.538 152.491C258.921 152.249 259.092 148.41 259.172 143.765C259.172 143.718 259.172 143.67 259.172 143.618C259.191 142.662 259.201 141.677 259.206 140.678C259.206 140.541 259.206 140.403 259.21 140.266L257.932 126.606L240.319 126.782L242.057 140.313L242.075 140.848L242.18 143.651L242.189 143.94C242.189 143.94 232.166 148.58 231.153 149.409C230.144 150.232 229.363 152.893 230.286 153.187Z" fill="#DD6A57"/>
<path d="M230.287 153.187C231.21 153.485 257.545 153.144 258.539 152.491C258.922 152.249 259.093 148.41 259.173 143.765C259.173 143.718 259.173 143.67 259.173 143.618C259.192 142.662 259.202 141.677 259.206 140.678C259.206 140.541 259.206 140.403 259.211 140.266L242.057 140.313L242.076 140.848L242.181 143.651L242.19 143.94C242.19 143.94 232.167 148.58 231.153 149.409C230.145 150.232 229.364 152.893 230.287 153.187Z" fill="#EBEBEB"/>
<path d="M230.287 153.184C230.76 153.335 237.914 153.321 244.908 153.179C246.314 153.151 247.71 153.117 249.046 153.084C254.031 152.947 258.155 152.743 258.534 152.492C258.913 152.256 259.088 148.52 259.164 143.961C259.164 143.894 259.168 143.833 259.168 143.766C259.168 143.719 259.168 143.667 259.173 143.62H259.154L242.185 143.653L242.195 143.942C242.195 143.942 232.171 148.577 231.158 149.41C230.14 150.234 229.364 152.89 230.287 153.184Z" fill="#FFC727"/>
<path d="M230.571 152.16C235.007 151.994 252.923 151.738 257.322 151.913C257.36 151.913 257.36 151.937 257.322 151.942C252.928 152.202 235.012 152.311 230.571 152.235C230.481 152.231 230.481 152.164 230.571 152.16Z" fill="#263238"/>
<path d="M240.291 143.722C242.033 143.372 244.174 143.614 245.523 144.84C245.575 144.887 245.509 144.963 245.452 144.944C243.724 144.423 242.109 144.097 240.301 143.94C240.173 143.936 240.168 143.746 240.291 143.722Z" fill="#263238"/>
<path d="M239.041 144.499C240.783 144.149 242.924 144.39 244.273 145.616C244.325 145.664 244.259 145.739 244.202 145.72C242.474 145.2 240.859 144.873 239.051 144.717C238.923 144.707 238.913 144.523 239.041 144.499Z" fill="#263238"/>
<path d="M237.787 145.275C239.529 144.925 241.669 145.167 243.019 146.393C243.071 146.44 243.004 146.516 242.947 146.497C241.219 145.976 239.605 145.649 237.796 145.493C237.673 145.484 237.664 145.299 237.787 145.275Z" fill="#263238"/>
<path d="M244.908 153.177C246.314 153.149 247.711 153.116 249.046 153.083C254.031 152.946 258.155 152.742 258.534 152.491C258.913 152.254 259.088 148.519 259.164 143.959C259.164 143.893 259.168 143.831 259.168 143.765C259.168 143.718 259.168 143.666 259.173 143.618H259.154C256.83 145.247 248.634 150.701 244.908 153.177Z" fill="#263238"/>
<path d="M241.025 143.708H259.992C259.992 143.708 256.171 99.4153 256.323 98.6388C256.512 97.6492 257.634 93.1655 259.121 87.3087C259.59 85.4764 260.091 83.5115 260.617 81.4709C262.033 75.9597 263.59 69.9372 264.949 64.6959C266.99 56.8458 268.581 50.7476 268.581 50.7476H252.506C252.506 50.7476 250.632 56.6849 248.274 64.4118C244.424 76.9682 239.287 94.2497 238.781 98.4494C237.952 105.234 241.025 143.708 241.025 143.708Z" fill="#455A64"/>
<path d="M241.863 140.474C244.761 140.413 243.927 140.389 246.825 140.361C248.241 140.347 257.558 140.266 258.884 140.484C258.913 140.489 258.913 140.536 258.884 140.541C257.558 140.758 248.245 140.678 246.825 140.664C243.927 140.635 244.761 140.612 241.863 140.55C241.811 140.555 241.811 140.474 241.863 140.474Z" fill="#263238"/>
<path d="M252.753 95.9353C253.373 93.194 254.306 90.5094 255.111 87.8154C256.753 82.3468 258.411 76.883 260.072 71.4192C260.901 68.6873 261.734 65.9554 262.572 63.2282C262.998 61.8505 263.42 60.4727 263.851 59.0949C264.272 57.7502 264.755 56.4151 265.134 55.0562C265.29 54.5022 265.375 54.8053 265.176 55.5107C264.779 56.9264 264.381 58.3421 263.969 59.753C263.15 62.5465 262.331 65.3399 261.502 68.1334C259.859 73.6919 258.193 79.2409 256.526 84.7899C255.693 87.5739 254.85 90.3532 254.017 93.1371C253.619 94.4676 253.226 95.8028 252.989 97.1758C252.743 98.6057 252.734 100.05 252.824 101.494C253.004 104.396 253.34 107.294 253.61 110.187C253.88 113.089 254.145 115.987 254.415 118.889C254.95 124.661 255.485 130.437 256.005 136.208C256.072 136.942 256.133 137.671 256.19 138.405C256.209 138.652 255.84 138.633 255.811 138.396C255.186 132.686 254.708 126.962 254.173 121.242C253.638 115.551 253.108 109.865 252.573 104.174C252.44 102.744 252.289 101.314 252.284 99.8793C252.289 98.5442 252.459 97.2326 252.753 95.9353Z" fill="#263238"/>
<path d="M254.325 50.7476C255.442 59.3789 257.568 75.5667 259.116 87.3087C262.743 73.081 268.571 50.7476 268.571 50.7476H254.325Z" fill="#263238"/>
<path d="M250.381 153.438C251.304 153.741 277.639 153.495 278.633 152.846C279.016 152.605 279.206 148.77 279.296 144.12C279.296 144.073 279.296 144.025 279.296 143.973C279.319 143.017 279.334 142.032 279.338 141.033C279.338 140.896 279.338 140.758 279.343 140.621C279.405 133.917 278.922 126.962 278.922 126.962L261.707 127.075L262.189 140.612L262.208 141.147L262.303 143.95L262.313 144.238C262.313 144.238 252.275 148.841 251.252 149.669C250.244 150.488 249.458 153.14 250.381 153.438Z" fill="#DD6A57"/>
<path d="M250.381 153.438C251.304 153.741 277.638 153.495 278.633 152.846C279.016 152.605 279.205 148.769 279.295 144.12C279.295 144.073 279.295 144.025 279.295 143.973C279.319 143.017 279.333 142.032 279.338 141.033C279.338 140.896 279.338 140.758 279.343 140.621L262.189 140.607L262.208 141.142L262.303 143.945L262.312 144.234C262.312 144.234 252.275 148.836 251.252 149.664C250.244 150.488 249.458 153.14 250.381 153.438Z" fill="#EBEBEB"/>
<path d="M250.381 153.438C251.304 153.741 277.638 153.495 278.633 152.846C279.016 152.605 279.206 148.77 279.296 144.12C279.296 144.073 279.296 144.025 279.296 143.973L262.303 143.94L262.312 144.229C262.312 144.229 252.275 148.831 251.252 149.66C250.244 150.488 249.458 153.14 250.381 153.438Z" fill="#FFC727"/>
<path d="M250.669 152.415C255.106 152.264 273.022 152.079 277.42 152.264C277.458 152.264 277.458 152.287 277.42 152.292C273.027 152.538 255.111 152.581 250.669 152.486C250.575 152.486 250.575 152.42 250.669 152.415Z" fill="#263238"/>
<path d="M260.413 144.016C262.156 143.675 264.296 143.921 265.64 145.152C265.693 145.2 265.626 145.275 265.569 145.256C263.841 144.731 262.227 144.395 260.423 144.234C260.295 144.224 260.29 144.04 260.413 144.016Z" fill="#263238"/>
<path d="M259.164 144.788C260.906 144.447 263.046 144.693 264.391 145.924C264.443 145.971 264.377 146.047 264.32 146.028C262.592 145.503 260.977 145.167 259.173 145.006C259.045 144.996 259.036 144.811 259.164 144.788Z" fill="#263238"/>
<path d="M257.909 145.555C259.651 145.214 261.791 145.46 263.136 146.691C263.188 146.738 263.122 146.814 263.065 146.795C261.337 146.27 259.722 145.934 257.918 145.773C257.79 145.768 257.781 145.583 257.909 145.555Z" fill="#263238"/>
<path d="M253.023 50.7476C253.023 50.7476 253.392 58.4367 255.153 64.5302C255.295 65.0321 255.447 65.5292 255.612 66.0027C255.612 66.0027 257.445 66.6656 260.243 68.3842C260.243 68.3842 260.428 74.5725 260.612 81.4709C260.816 89.1837 261.029 97.7913 260.986 99.6141C260.825 106.442 261.839 143.987 261.839 143.987L280.801 144.063C280.801 144.063 277.373 102.138 277.397 99.6378C277.435 95.6181 276.478 77.8489 275.74 64.8901C275.29 56.9074 274.916 50.7523 274.916 50.7523H253.023V50.7476Z" fill="#455A64"/>
<path d="M262.492 140.616C265.389 140.569 264.556 140.541 267.454 140.526C268.869 140.517 278.187 140.479 279.513 140.702C279.541 140.706 279.541 140.754 279.513 140.758C278.187 140.972 268.874 140.853 267.454 140.829C264.556 140.792 265.389 140.768 262.492 140.697C262.44 140.697 262.44 140.616 262.492 140.616Z" fill="#263238"/>
<path d="M273.33 53.4985C273.68 64.0757 274.049 74.6577 274.523 85.2302C274.996 95.8406 275.635 106.446 276.525 117.033C277.023 122.947 277.491 131.265 278.126 137.165C278.131 137.203 278.069 137.217 278.064 137.179C276.682 126.687 275.915 113.709 275.233 103.151C274.556 92.5927 274.092 82.0154 273.732 71.4429C273.528 65.463 273.372 59.4784 273.192 53.4985C273.197 53.4038 273.325 53.4133 273.33 53.4985Z" fill="#263238"/>
<path d="M254.822 65.5482C256.711 66.2962 258.52 67.3237 260.243 68.389C260.31 68.4316 260.262 68.5357 260.186 68.5026C258.359 67.6125 256.489 66.7602 254.713 65.7707C254.571 65.6855 254.68 65.4866 254.822 65.5482Z" fill="#263238"/>
<path d="M253.69 57.04C253.842 57.8543 254.04 58.6592 254.216 59.4641C254.381 60.2217 254.5 60.9982 254.703 61.7462C254.897 62.4754 255.205 63.1382 255.764 63.659C256.062 63.9337 256.389 64.1799 256.706 64.4355C256.877 64.5728 257.061 64.7054 257.241 64.8427C257.217 64.7338 257.198 64.6249 257.18 64.516C257.127 64.2083 257.075 63.9005 257.023 63.5928C256.91 62.9062 256.801 62.2244 256.692 61.5379C256.484 60.1885 256.294 58.8249 256.015 57.4898C256.005 57.433 256.086 57.414 256.1 57.4708C256.436 58.7918 256.805 60.1033 257.099 61.4385C257.241 62.0919 257.752 65.3256 257.776 65.5529C257.8 65.7896 257.819 66.0264 257.828 66.2631C257.838 66.4951 257.885 66.7603 257.828 66.9875C257.814 67.0443 257.743 67.0349 257.719 66.997C257.719 66.997 257.719 66.997 257.715 67.0017C257.596 66.7981 257.568 66.5283 257.511 66.301C257.449 66.069 257.397 65.837 257.359 65.6003C257.345 65.515 257.331 65.4298 257.322 65.3446C257.004 65.1505 256.706 64.8948 256.408 64.6817C256.086 64.4497 255.759 64.2225 255.456 63.9668C254.874 63.4791 254.514 62.8778 254.296 62.1534C254.074 61.4006 254.003 60.6099 253.917 59.8334C253.813 58.9149 253.737 57.9916 253.61 57.0779C253.595 57.0068 253.676 56.9832 253.69 57.04Z" fill="#263238"/>
<path d="M240.661 14.641L242.948 27.0174C243.056 27.382 242.858 27.6613 242.507 27.6376L236.224 27.2352C235.874 27.2115 235.5 26.899 235.396 26.5297L233.109 14.1533C233 13.7887 233.199 13.5094 233.549 13.533L239.832 13.9355C240.178 13.9592 240.552 14.2717 240.661 14.641Z" fill="#37474F"/>
<path d="M239.913 14.5842L242.199 26.9606C242.308 27.3252 242.109 27.6045 241.759 27.5808L235.476 27.1784C235.126 27.1547 234.752 26.8422 234.648 26.4729L232.361 14.0965C232.252 13.7319 232.451 13.4526 232.801 13.4763L239.084 13.8787C239.434 13.9024 239.804 14.2196 239.913 14.5842Z" fill="#455A64"/>
<path d="M239.215 15.0744C239.227 14.7792 238.998 14.5298 238.703 14.5174C238.407 14.505 238.158 14.7342 238.146 15.0295C238.133 15.3247 238.363 15.5741 238.658 15.5865C238.953 15.5989 239.202 15.3696 239.215 15.0744Z" fill="#263238"/>
<path d="M259.732 34.3798C255.755 41.7612 247.223 51.1595 243.913 51.0175C242.341 50.9512 239.51 51.1737 237.545 49.2514C233.26 45.0612 229.913 37.3106 229.382 32.95C229.193 31.397 236.849 28.4852 237.881 29.7967C240.301 32.8695 242.985 38.7783 243.444 38.7689C245.144 38.7357 252.061 33.5891 256.896 29.9671C262.771 25.5733 261.318 31.4396 259.732 34.3798Z" fill="#DD6A57"/>
<path d="M229.638 25.0052C230.599 21.9324 231.319 21.2884 230.756 18.263C230.386 16.2792 231.494 15.1902 232.796 16.8378C234.927 19.5366 234.515 23.7599 233.952 25.1851L229.638 25.0052Z" fill="#DD6A57"/>
<path d="M229.676 34.3088C229.676 34.3088 228.526 29.8866 229.226 26.5108C229.714 24.1766 231.333 19.2146 238.075 16.9183C239.676 16.3738 242.337 16.7337 240.05 18.5707C238.426 19.8775 237.001 20.2136 236.191 21.1416C236.191 21.1416 239.524 21.9986 240.007 23.6226C240.225 24.347 240.765 26.3403 240.964 27.9548C240.964 27.9548 240.623 28.0921 240.168 28.2058C240.168 28.2058 240.571 29.7398 239.335 31.8136L229.676 34.3088Z" fill="#DD6A57"/>
<path d="M230.046 24.3565C231.045 23.6037 233.18 22.0365 235.377 21.369C237.815 20.6256 242.711 19.8444 243.246 21.6483C243.634 22.974 241.792 23.4333 241.792 23.4333C241.792 23.4333 243.885 23.5374 243.975 24.8111C244.055 25.9711 242.611 26.2409 242.611 26.2409C242.611 26.2409 243.871 26.525 243.734 27.6566C243.573 29.0202 240.959 28.2058 239.605 29.4416C239.297 29.7209 230.046 24.3565 230.046 24.3565Z" fill="#DD6A57"/>
<path d="M235.737 24.0724C236.792 23.5184 239.505 22.8651 241.754 23.3953C241.806 23.4096 241.825 23.4522 241.773 23.4522C239.179 23.3953 236.759 23.8451 235.741 24.0961C235.727 24.1008 235.722 24.0771 235.737 24.0724Z" fill="#263238"/>
<path d="M236.56 26.5108C237.517 26.1225 240.348 25.5828 242.606 26.1936C242.658 26.2078 242.673 26.2551 242.625 26.2504C239.912 26.0799 237.597 26.3451 236.565 26.5345C236.551 26.5392 236.546 26.5155 236.56 26.5108Z" fill="#263238"/>
<path d="M229.141 36.108C229.141 36.108 234.605 48.5318 238.085 50.1274C241.56 51.7229 243.715 51.5288 245.05 51.401C245.443 51.3631 245.926 51.1501 246.484 50.7997C250.211 48.4371 257.133 39.73 260.016 34.7823C262.18 31.0609 262.156 27.5856 259.131 28.5373C258.378 28.7693 257.44 29.2853 256.299 30.1376C250.599 34.4083 244.032 38.4091 243.738 38.2386C243.445 38.0682 240.58 32.9263 240.58 32.9263L229.141 36.108Z" fill="#FFC727"/>
<path d="M243.236 40.8426C243.279 41.1266 243.26 41.406 243.227 41.6806C243.184 41.9552 243.127 42.2251 243.004 42.4855C242.957 42.2014 242.98 41.9221 243.014 41.6475C243.051 41.3728 243.113 41.103 243.236 40.8426Z" fill="white"/>
<path d="M236.106 43.9154C236.149 44.1995 236.13 44.4788 236.097 44.7534C236.054 45.028 235.997 45.2979 235.874 45.5583C235.827 45.2742 235.85 44.9949 235.883 44.7203C235.926 44.4457 235.983 44.1758 236.106 43.9154Z" fill="white"/>
<path d="M248.677 46.9124C248.719 47.1965 248.7 47.4759 248.667 47.7505C248.624 48.0251 248.568 48.295 248.445 48.5554C248.397 48.2713 248.421 47.9919 248.454 47.7173C248.497 47.4475 248.553 47.1729 248.677 46.9124Z" fill="white"/>
<path d="M252.128 34.7065C252.171 34.9906 252.152 35.2699 252.119 35.5445C252.076 35.8191 252.019 36.089 251.896 36.3494C251.849 36.0653 251.872 35.786 251.905 35.5114C251.943 35.2415 252.005 34.9669 252.128 34.7065Z" fill="white"/>
<path d="M253.241 39.711C252.956 39.7536 252.677 39.7346 252.402 39.7015C252.128 39.6589 251.858 39.6021 251.598 39.479C251.882 39.4316 252.161 39.4553 252.436 39.4884C252.706 39.5263 252.98 39.5879 253.241 39.711Z" fill="white"/>
<path d="M238.691 41.1551C238.407 41.1977 238.127 41.1787 237.853 41.1456C237.578 41.103 237.308 41.0462 237.048 40.9231C237.332 40.8757 237.611 40.8994 237.886 40.9325C238.156 40.9751 238.426 41.032 238.691 41.1551Z" fill="white"/>
<path d="M246.082 45.5157C245.798 45.5583 245.518 45.5394 245.244 45.5062C244.969 45.4636 244.699 45.4068 244.439 45.2837C244.723 45.2363 245.002 45.26 245.277 45.2932C245.547 45.3358 245.817 45.3926 246.082 45.5157Z" fill="white"/>
<path d="M232.025 36.8702C231.741 36.9128 231.461 36.8939 231.187 36.8607C230.912 36.8181 230.642 36.7613 230.382 36.6382C230.666 36.5908 230.945 36.6145 231.22 36.6476C231.49 36.6855 231.76 36.7471 232.025 36.8702Z" fill="white"/>
<path d="M239.226 49.5875C238.942 49.6301 238.663 49.6112 238.388 49.578C238.113 49.5354 237.843 49.4786 237.583 49.3555C237.867 49.3082 238.146 49.3318 238.421 49.365C238.691 49.4076 238.961 49.4644 239.226 49.5875Z" fill="white"/>
<path d="M260.613 28.9491C260.845 29.058 261.086 29.1148 261.332 29.1574C261.294 29.0722 261.252 29.0059 261.2 28.9349C261.006 28.9159 260.811 28.9159 260.613 28.9491Z" fill="white"/>
<path d="M246.782 37.7887C247.014 37.9591 247.199 38.1675 247.369 38.3853C247.53 38.6078 247.682 38.8398 247.781 39.1144C247.549 38.944 247.365 38.7356 247.194 38.5178C247.028 38.2953 246.877 38.0633 246.782 37.7887Z" fill="white"/>
<path d="M239.941 44.7345C240.173 44.9049 240.358 45.1133 240.528 45.3311C240.689 45.5536 240.841 45.7856 240.94 46.0602C240.708 45.8898 240.524 45.6814 240.353 45.4636C240.192 45.2411 240.041 45.0091 239.941 44.7345Z" fill="white"/>
<path d="M236.054 35.5303C236.286 35.7007 236.47 35.909 236.641 36.1268C236.802 36.3494 236.953 36.5814 237.053 36.856C236.821 36.6855 236.636 36.4772 236.466 36.2594C236.305 36.0321 236.153 35.8001 236.054 35.5303Z" fill="white"/>
<path d="M251.101 43.868C251.333 44.0385 251.517 44.2468 251.688 44.4646C251.849 44.6871 252 44.9191 252.1 45.1938C251.868 45.0233 251.683 44.815 251.513 44.5972C251.347 44.3747 251.2 44.1427 251.101 43.868Z" fill="white"/>
<path d="M256.247 32.1876C256.479 32.358 256.664 32.5664 256.834 32.7842C256.995 33.0067 257.147 33.2387 257.246 33.5133C257.014 33.3429 256.829 33.1345 256.659 32.9167C256.498 32.6895 256.346 32.4575 256.247 32.1876Z" fill="white"/>
<path d="M256.584 37.8976C256.754 37.6656 256.962 37.481 257.18 37.3105C257.403 37.1496 257.635 36.998 257.909 36.8986C257.739 37.1306 257.531 37.3153 257.313 37.4857C257.085 37.6467 256.853 37.7982 256.584 37.8976Z" fill="white"/>
<path d="M232.408 40.6342C232.578 40.4022 232.787 40.2176 233.005 40.0471C233.227 39.8862 233.459 39.7347 233.734 39.6352C233.563 39.8672 233.355 40.0519 233.137 40.2223C232.915 40.3833 232.683 40.5348 232.408 40.6342Z" fill="white"/>
<path d="M239.846 38.3947C240.017 38.1627 240.225 37.9781 240.443 37.8076C240.666 37.6467 240.898 37.4951 241.172 37.3957C241.002 37.6277 240.793 37.8124 240.576 37.9828C240.353 38.1485 240.116 38.2953 239.846 38.3947Z" fill="white"/>
<path d="M248.037 42.9827C248.208 42.7507 248.416 42.566 248.634 42.3956C248.856 42.2346 249.088 42.0831 249.363 41.9836C249.192 42.2156 248.984 42.4003 248.766 42.5707C248.544 42.7365 248.307 42.8832 248.037 42.9827Z" fill="white"/>
<path d="M243.108 49.8243C243.279 49.5923 243.487 49.4076 243.705 49.2372C243.927 49.0762 244.159 48.9247 244.434 48.8253C244.264 49.0573 244.055 49.2419 243.837 49.4124C243.615 49.5781 243.383 49.7248 243.108 49.8243Z" fill="white"/>
<path opacity="0.1" d="M246.484 50.8044C250.21 48.4418 257.133 39.7347 260.016 34.787C262.18 31.0656 262.156 27.5903 259.131 28.542C257.45 31.4633 250.111 44.2563 246.484 50.8044Z" fill="black"/>
<path d="M230.533 38.3948C230.95 38.1912 234.87 36.9081 235.727 36.6477C236.584 36.3873 240.083 35.2889 240.988 35.0948C241.03 35.0853 241.049 35.1374 241.006 35.1563C240.154 35.5162 236.632 36.6335 235.76 36.9176C234.894 37.2017 230.988 38.3854 230.543 38.4564C230.51 38.4611 230.505 38.409 230.533 38.3948Z" fill="#263238"/>
<path d="M249.42 60.1554C249.803 60.6336 276.511 62.2907 276.658 62.1345C277.061 61.7084 270.825 32.3582 265.115 27.169C263.889 26.0516 260.144 26.9275 259.116 27.7466C258.472 28.2627 256.787 31.79 255.608 34.7302C253.259 40.6202 249.083 59.7388 249.42 60.1554Z" fill="#263238"/>
<path d="M259.803 26.615C258.662 27.2731 257.388 31.2218 259.732 32.0457C262.075 32.8695 264.746 29.3232 265.219 28.1348C265.683 26.9464 262.27 25.1898 259.803 26.615Z" fill="#FFC727"/>
<path d="M259.965 31.5154C261.437 31.88 263.989 29.65 265.007 27.8366C265.078 27.7135 264.899 26.3925 264.757 24.7732C264.676 23.7932 264.605 22.6995 264.619 21.6957L258.313 23.1587C258.313 23.1587 258.909 25.2656 258.881 27.0175C258.876 27.1642 258.862 27.3016 258.833 27.4294C258.833 27.4483 258.824 27.472 258.824 27.4957C258.691 28.2769 258.545 31.1603 259.965 31.5154Z" fill="#DD6A57"/>
<path d="M264.319 21.762C264.111 23.012 263.112 27.491 259.466 27.5336C259.234 27.5336 259.017 27.5241 258.822 27.491C258.822 27.4626 258.827 27.4389 258.832 27.42C258.86 27.2921 258.875 27.1548 258.879 27.008C258.908 25.2609 258.306 23.1493 258.306 23.1493L264.319 21.762Z" fill="#263238"/>
<path d="M264.935 13.8693C265.764 16.0472 265.015 22.5574 263.529 24.0962C261.374 26.3262 257.629 26.776 255.679 24.1388C253.79 21.5773 254.912 13.1165 256.592 11.6961C259.069 9.5986 263.713 10.645 264.935 13.8693Z" fill="#DD6A57"/>
<path d="M259.05 18.2111C259.054 18.1969 259.083 18.2347 259.078 18.2537C259.016 18.6893 259.016 19.2006 259.4 19.39C259.409 19.3947 259.409 19.4184 259.395 19.4137C258.917 19.2953 258.922 18.6182 259.05 18.2111Z" fill="#263238"/>
<path d="M259.49 17.7991C260.201 17.8228 260.101 19.2432 259.443 19.2195C258.794 19.1958 258.894 17.7754 259.49 17.7991Z" fill="#263238"/>
<path d="M256.583 18.0501C256.583 18.0311 256.545 18.069 256.545 18.088C256.526 18.5283 256.436 19.0302 256.024 19.1485C256.01 19.1533 256.01 19.1722 256.024 19.1722C256.521 19.1391 256.64 18.4715 256.583 18.0501Z" fill="#263238"/>
<path d="M256.223 17.5624C255.517 17.4582 255.366 18.8739 256.015 18.9686C256.658 19.068 256.815 17.6523 256.223 17.5624Z" fill="#263238"/>
<path d="M260.096 17.1883C259.907 17.1268 259.741 17.0368 259.561 16.9563C259.357 16.8664 259.182 16.8143 259.059 16.6154C258.993 16.5113 259.036 16.3313 259.135 16.2556C259.362 16.0804 259.642 16.1325 259.893 16.2319C260.167 16.3408 260.347 16.4923 260.489 16.748C260.622 16.9942 260.347 17.2688 260.096 17.1883Z" fill="#263238"/>
<path d="M255.712 17.1282C255.911 17.1092 256.09 17.0619 256.285 17.0193C256.507 16.9766 256.682 16.9624 256.848 16.7967C256.938 16.7068 256.933 16.5221 256.857 16.4274C256.678 16.2096 256.393 16.1954 256.124 16.2333C255.835 16.2806 255.622 16.3848 255.428 16.6026C255.238 16.8251 255.447 17.1518 255.712 17.1282Z" fill="#263238"/>
<path d="M259.495 22.3539C259.381 22.4486 259.267 22.5859 259.106 22.5859C258.95 22.5859 258.78 22.5054 258.642 22.4438C258.628 22.4391 258.614 22.4533 258.624 22.4628C258.728 22.638 258.96 22.7611 259.163 22.7421C259.367 22.7232 259.476 22.5575 259.537 22.3775C259.547 22.3491 259.514 22.3397 259.495 22.3539Z" fill="#263238"/>
<path d="M259.125 21.0045C258.851 21.3691 258.477 21.5537 258.079 21.6011C257.904 21.6247 257.719 21.6153 257.539 21.5869C257.506 21.5821 257.468 21.5774 257.435 21.5679C257.402 21.5632 257.373 21.5537 257.34 21.5442C257.288 21.5348 257.265 21.4874 257.26 21.4401V21.4353C257.26 21.4211 257.265 21.4069 257.269 21.3927C257.269 21.3927 257.269 21.3927 257.269 21.388L257.274 21.3501C257.288 21.0092 257.359 20.4979 257.359 20.4979C257.231 20.55 256.578 20.7914 256.602 20.6163C256.791 19.158 257.004 17.534 257.501 16.123C257.515 16.0757 257.587 16.0899 257.582 16.142C257.454 17.5529 257.08 18.9307 256.928 20.3464C257.137 20.2848 257.473 20.1665 257.653 20.1807C257.7 20.1996 257.501 21.1702 257.506 21.3217C257.506 21.3217 257.506 21.3264 257.506 21.3359C258.069 21.4495 258.51 21.3075 259.092 20.9619C259.121 20.9382 259.154 20.9713 259.125 21.0045Z" fill="#263238"/>
<path d="M257.795 21.5111C257.795 21.5111 258.103 21.9088 258.51 22.0461C258.662 22.0982 258.823 22.1171 258.993 22.0698C259.339 21.9704 259.344 21.6531 259.277 21.3785C259.22 21.156 259.112 20.9619 259.112 20.9619C259.112 20.9619 258.61 21.4448 257.795 21.5111Z" fill="#263238"/>
<path d="M258.51 22.0462C258.661 22.0982 258.822 22.1172 258.993 22.0698C259.339 21.9704 259.343 21.6532 259.277 21.3786C258.903 21.4212 258.534 21.6816 258.51 22.0462Z" fill="#F392B9"/>
<path d="M263.486 19.0158C263.486 19.0158 264.845 16.8663 265.811 17.3398C266.781 17.8132 265.825 20.8813 264.736 21.35C263.647 21.814 263.197 20.815 263.197 20.815L263.486 19.0158Z" fill="#DD6A57"/>
<path d="M265.518 18.2157C265.537 18.211 265.541 18.2394 265.527 18.2441C264.765 18.5945 264.391 19.3331 264.135 20.0954C264.353 19.7971 264.661 19.6266 265.058 19.8823C265.077 19.8965 265.063 19.9297 265.039 19.9249C264.718 19.8728 264.49 19.9391 264.287 20.2043C264.145 20.3937 264.05 20.6257 263.951 20.8387C263.917 20.9097 263.79 20.8766 263.813 20.7961C263.813 20.7914 263.818 20.7819 263.818 20.7772C263.752 19.7876 264.457 18.3625 265.518 18.2157Z" fill="#263238"/>
<path d="M255.821 14.5321C257.946 15.8815 260.711 13.6278 260.711 13.6278C261.436 15.2281 263.05 14.9772 263.05 14.9772C263.05 14.9772 263.585 18.4761 264.509 18.4382C265.92 18.3814 266.185 13.571 265.707 12.6477C265.228 11.7197 264.021 11.5209 264.021 11.5209C264.021 11.5209 263.907 10.7917 263.012 10.1573C262.023 9.45181 258.732 10.5645 258.732 10.5645C258.732 10.5645 258.481 9.95368 257.838 9.44234C257.43 9.12038 256.905 9.20561 256.583 9.60332C256.753 9.83058 256.886 10.1147 256.952 10.4556C257.156 11.4782 256.313 11.5067 256.289 10.5739C256.28 10.1573 256.398 9.83058 256.583 9.60332C256.147 9.00675 255.461 8.83156 255.063 9.17246C254.343 9.79744 254.05 13.41 255.821 14.5321Z" fill="#263238"/>
<path d="M267.563 29.541C275.564 37.8693 287.231 58.9622 288.67 61.9877C289.65 64.0425 278.916 69.4543 278.462 67.9581C277.88 66.0453 268.529 42.443 266.048 33.5371C264.675 28.6225 265.91 27.8176 267.563 29.541Z" fill="#DD6A57"/>
<path d="M277.955 66.5424C278.329 67.5651 279.603 71.9068 280.493 72.4466C281.383 72.9863 286.061 72.8727 288.419 72.8727C290.777 72.8727 291.241 72.2145 291.203 71.4049C291.165 70.5953 286.217 70.439 286.217 70.439C286.217 70.439 292.822 72.3329 294.484 72.6407C296.146 72.9484 299.976 73.9143 300.53 72.5365C300.781 71.9163 299.73 71.2866 299.73 71.2866C299.73 71.2866 301.335 71.7553 301.591 70.9551C301.88 70.0461 300.606 69.5442 300.606 69.5442C300.606 69.5442 301.61 69.7478 301.633 69.0044C301.685 67.3473 295.403 66.5377 295.403 66.5377C295.403 66.5377 300.213 68.8813 300.369 67.5272C300.582 65.657 290.725 63.6069 289.697 62.7926C288.67 61.9782 288.054 60.7614 288.054 60.7614L277.955 66.5424Z" fill="#DD6A57"/>
<path d="M291.17 71.8168C291.199 71.5706 291.118 71.3386 290.948 71.187C290.787 71.0308 290.583 70.9124 290.375 70.813C289.949 70.6189 289.489 70.4911 289.025 70.3727C288.097 70.136 287.146 69.9702 286.194 69.724C287.174 69.7098 288.149 69.8187 289.106 70.0507C289.579 70.1738 290.057 70.3253 290.493 70.581C290.711 70.7088 290.919 70.8698 291.071 71.0781C291.227 71.3007 291.274 71.5942 291.17 71.8168Z" fill="#263238"/>
<path d="M299.735 71.2912C299.053 71.1255 298.386 70.9314 297.718 70.742C297.046 70.5526 296.383 70.3443 295.72 70.1454L293.731 69.5205C293.069 69.3121 292.406 69.1085 291.733 68.905C292.429 68.9712 293.116 69.118 293.798 69.2743C294.48 69.4305 295.152 69.6246 295.819 69.8282C296.487 70.0365 297.15 70.2543 297.799 70.5005C298.447 70.742 299.101 70.9977 299.735 71.2912Z" fill="#263238"/>
<path d="M293.324 67.2525C293.968 67.2857 294.602 67.3898 295.232 67.5177C295.862 67.6408 296.482 67.8065 297.098 67.9959C297.708 68.19 298.314 68.4078 298.901 68.6682C299.493 68.9191 300.066 69.2174 300.611 69.5489C300.005 69.3405 299.413 69.1038 298.807 68.9049C298.205 68.7013 297.604 68.493 296.998 68.3084C296.392 68.1142 295.781 67.9391 295.171 67.7591C294.56 67.5887 293.944 67.423 293.324 67.2525Z" fill="#263238"/>
<path d="M294.295 65.6759C295.332 65.7374 296.345 65.9884 297.33 66.3151C298.31 66.6512 299.261 67.0868 300.118 67.6692C299.143 67.3188 298.191 66.9543 297.221 66.6323C296.255 66.2961 295.284 65.9931 294.295 65.6759Z" fill="#263238"/>
<path d="M266.147 35.8429C268.046 44.0102 277.118 66.3341 277.118 66.3341L285.271 62.4044L289.385 60.4205C289.385 60.4205 275.385 38.5511 269.661 31.3923C269.215 30.8431 268.813 30.3696 268.444 29.9766C264.897 26.1841 264.68 29.5457 266.147 35.8429Z" fill="#FFC727"/>
<path d="M276.44 63.9005C281.237 61.1165 286.7 58.9196 287.624 58.4698C287.666 58.4462 287.695 58.5219 287.652 58.5409C286.724 58.9338 280.749 62.125 276.469 63.981C276.421 63.9999 276.393 63.9242 276.44 63.9005Z" fill="#263238"/>
<path d="M274.717 40.639C274.76 40.9231 274.741 41.2024 274.708 41.477C274.665 41.7517 274.608 42.0215 274.485 42.2819C274.438 41.9979 274.461 41.7185 274.495 41.4439C274.537 41.174 274.594 40.9041 274.717 40.639Z" fill="white"/>
<path d="M270.948 47.8073C270.991 48.0914 270.972 48.3707 270.939 48.6453C270.896 48.9199 270.839 49.1898 270.716 49.4502C270.669 49.1661 270.693 48.8868 270.726 48.6122C270.768 48.3376 270.825 48.0677 270.948 47.8073Z" fill="white"/>
<path d="M280.446 59.1279C280.489 59.412 280.47 59.6913 280.437 59.9659C280.394 60.2405 280.337 60.5104 280.214 60.7708C280.167 60.4868 280.19 60.2074 280.224 59.9328C280.261 59.6582 280.323 59.3883 280.446 59.1279Z" fill="white"/>
<path d="M280.157 46.7136C280.2 46.9977 280.181 47.2771 280.148 47.5517C280.105 47.8263 280.048 48.0961 279.925 48.3566C279.878 48.0725 279.901 47.7931 279.935 47.5185C279.977 47.2439 280.034 46.974 280.157 46.7136Z" fill="white"/>
<path d="M283.055 51.9454C283.097 52.2295 283.078 52.5088 283.045 52.7834C283.002 53.058 282.946 53.3279 282.823 53.5883C282.775 53.3042 282.799 53.0249 282.832 52.7503C282.875 52.4804 282.931 52.2105 283.055 51.9454Z" fill="white"/>
<path d="M270.247 32.8221C269.963 32.8647 269.684 32.8458 269.409 32.8126C269.135 32.77 268.865 32.7132 268.604 32.5901C268.888 32.5427 269.168 32.5664 269.442 32.5996C269.712 32.6374 269.982 32.699 270.247 32.8221Z" fill="white"/>
<path d="M270.172 40.9562C269.888 40.9989 269.608 40.9799 269.334 40.9468C269.059 40.9042 268.789 40.8473 268.529 40.7242C268.813 40.6769 269.092 40.7006 269.367 40.7337C269.637 40.7716 269.911 40.8331 270.172 40.9562Z" fill="white"/>
<path d="M277.563 45.3169C277.279 45.3595 276.999 45.3405 276.725 45.3074C276.45 45.2648 276.18 45.208 275.92 45.0849C276.204 45.0375 276.483 45.0612 276.758 45.0943C277.032 45.1369 277.302 45.1938 277.563 45.3169Z" fill="white"/>
<path d="M284.934 61.7888C284.65 61.8314 284.371 61.8124 284.096 61.7793C283.821 61.7367 283.552 61.6799 283.291 61.5568C283.575 61.5094 283.855 61.5331 284.129 61.5662C284.404 61.6088 284.674 61.6657 284.934 61.7888Z" fill="white"/>
<path d="M277.236 62.0634C276.952 62.106 276.672 62.0871 276.398 62.0539C276.123 62.0113 275.853 61.9545 275.593 61.8314C275.877 61.784 276.156 61.8077 276.431 61.8409C276.706 61.8835 276.976 61.9403 277.236 62.0634Z" fill="white"/>
<path d="M274.987 53.9198C274.703 53.9624 274.423 53.9434 274.149 53.9103C273.874 53.8677 273.604 53.8109 273.344 53.6878C273.628 53.6404 273.907 53.6641 274.182 53.6972C274.456 53.7398 274.726 53.7967 274.987 53.9198Z" fill="white"/>
<path d="M282.297 56.1403C282.529 56.3108 282.714 56.5191 282.884 56.7369C283.045 56.9594 283.196 57.1914 283.296 57.466C283.064 57.2956 282.879 57.0873 282.709 56.8695C282.543 56.6469 282.396 56.4149 282.297 56.1403Z" fill="white"/>
<path d="M271.426 44.5356C271.658 44.7061 271.843 44.9144 272.013 45.1322C272.174 45.3547 272.326 45.5867 272.425 45.8613C272.193 45.6909 272.009 45.4826 271.838 45.2648C271.673 45.0422 271.521 44.8055 271.426 44.5356Z" fill="white"/>
<path d="M267.539 35.3267C267.771 35.4971 267.956 35.7055 268.126 35.9233C268.287 36.1458 268.439 36.3778 268.538 36.6524C268.306 36.482 268.122 36.2736 267.951 36.0558C267.786 35.8333 267.634 35.6013 267.539 35.3267Z" fill="white"/>
<path d="M278.76 50.6197C278.992 50.7901 279.177 50.9985 279.347 51.2163C279.508 51.4388 279.66 51.6708 279.759 51.9454C279.527 51.775 279.343 51.5666 279.172 51.3488C279.011 51.1263 278.86 50.8896 278.76 50.6197Z" fill="white"/>
<path d="M275.432 57.7975C275.664 57.9679 275.848 58.1762 276.019 58.394C276.18 58.6166 276.331 58.8485 276.431 59.1232C276.199 58.9527 276.014 58.7444 275.844 58.5266C275.683 58.3041 275.531 58.0721 275.432 57.7975Z" fill="white"/>
<path d="M285.526 58.5787C285.697 58.3467 285.905 58.162 286.123 57.9915C286.345 57.8306 286.577 57.6791 286.852 57.5796C286.682 57.8116 286.473 57.9963 286.255 58.1667C286.033 58.3277 285.801 58.4792 285.526 58.5787Z" fill="white"/>
<path d="M278.76 64.4781C278.931 64.2461 279.139 64.0614 279.357 63.891C279.579 63.73 279.811 63.5785 280.086 63.479C279.915 63.711 279.707 63.8957 279.489 64.0661C279.267 64.2319 279.035 64.3786 278.76 64.4781Z" fill="white"/>
<path d="M278.097 55.9036C278.268 55.6716 278.476 55.4869 278.694 55.3165C278.916 55.1555 279.148 55.004 279.423 54.9046C279.253 55.1366 279.044 55.3212 278.826 55.4917C278.604 55.6527 278.372 55.8042 278.097 55.9036Z" fill="white"/>
<path d="M271.332 38.1959C271.502 37.9639 271.71 37.7793 271.928 37.6088C272.151 37.4478 272.383 37.2963 272.657 37.1969C272.487 37.4289 272.279 37.6136 272.061 37.784C271.833 37.945 271.601 38.0965 271.332 38.1959Z" fill="white"/>
<path d="M265.707 31.4017C265.877 31.1697 266.086 30.9851 266.303 30.8146C266.526 30.6536 266.758 30.5021 267.033 30.4027C266.862 30.6347 266.654 30.8194 266.436 30.9898C266.209 31.1508 265.977 31.3023 265.707 31.4017Z" fill="white"/>
<path d="M274.594 49.6254C274.765 49.3934 274.973 49.2088 275.191 49.0383C275.413 48.8773 275.645 48.7258 275.92 48.6264C275.749 48.8584 275.541 49.0431 275.323 49.2135C275.096 49.3745 274.864 49.526 274.594 49.6254Z" fill="white"/>
</svg>
