<svg xmlns="http://www.w3.org/2000/svg" viewBox="0 0 66.27 66.27"><defs><style>.cls-1{isolation:isolate;}.cls-2{fill:#f8be44;}.cls-3{fill:#1d1d1b;}.cls-3,.cls-4{stroke:#1d1d1b;stroke-miterlimit:10;}.cls-4{fill:#fff;}.cls-5{mix-blend-mode:multiply;}</style></defs><title>H icon logo</title><g class="cls-1"><g id="Calque_1" data-name="Calque 1"><rect class="cls-2" width="66.27" height="66.27" rx="11.63"/><path class="cls-3" d="M167.31,160.19l.1,2.05-8.89.48-.46-8.61c-.21-3.87-.33-9.68-6-9.38-3.69.2-6.4,1.49-7.8,3.22l.83,15.49-8.9.48-1.69-31.57,8.89-.48.49,9.18a14.87,14.87,0,0,1,10.18-4.48c3.85-.2,8.93-.09,10.89,4.74C166.35,144.79,166.79,150.41,167.31,160.19Z" transform="translate(-115.42 -108.35)"/><path class="cls-4" d="M161.64,156.79l.11,2.05-8.9.48-.46-8.61c-.21-3.87-.33-9.68-6-9.38-3.69.2-6.4,1.48-7.8,3.22l.83,15.49-8.9.47L128.83,129l8.89-.48.5,9.18a14.8,14.8,0,0,1,10.17-4.48c3.85-.2,8.93-.09,10.89,4.74C160.68,141.39,161.12,147,161.64,156.79Z" transform="translate(-115.42 -108.35)"/><g class="cls-5"><path class="cls-3" d="M173.46,121.75l.48,6-8.17,5.46-1.36-1.54,1.66-3.29-.48-6Z" transform="translate(-115.42 -108.35)"/></g><path class="cls-4" d="M167.79,121.75l.48,6-8.17,5.46-1.35-1.54,1.65-3.29-.48-6Z" transform="translate(-115.42 -108.35)"/></g></g></svg>